<svg xmlns="http://www.w3.org/2000/svg" xmlns:xlink="http://www.w3.org/1999/xlink" width="856.918" height="523" viewBox="0 0 856.918 523"><defs><style>.a{fill:#0c2840;}.b,.c{fill:#dadbd8;}.b,.d{fill-rule:evenodd;}.d{fill:#afb1ac;}.e{fill:#e7e8e5;}.f{fill:#17282f;}.g{fill:#174b78;}.h{fill:#fff;}.i{fill:#c3c5c2;}.j{fill:#073055;}.k{fill:#f03d5f;}.l{fill:#fafaf9;}.m{fill:#33535f;}.n{fill:#f8a58d;}.o{fill:#f68260;}.p{clip-path:url(#a);}.q{fill:#09253d;}.r{fill:#c0776a;}.s{fill:#0e2b44;}.t{fill:#a4a6a5;}.u{fill:#b85549;}.v{fill:#008ccb;}</style><clipPath id="a"><path class="a" d="M677.534-40.2a33.124,33.124,0,0,1-8.457-1.03,22.846,22.846,0,0,1-11.818-7.213,33.788,33.788,0,0,1-4.927-9.032,123.66,123.66,0,0,1-4.5-15.648l5.831-1.992,6.172,21.456,23.214,13.113a46.124,46.124,0,0,1-5.513.345" transform="translate(-647.829 75.114)"/></clipPath></defs><path class="b" d="M759.115-405.284a29.534,29.534,0,0,0-35.285,22.355,29.538,29.538,0,0,0,22.357,35.283A29.535,29.535,0,0,0,781.471-370,29.532,29.532,0,0,0,759.115-405.284ZM782.8-436.9a67.537,67.537,0,0,1,14.673,10.337l15.677-5.581,14.735,23.257-11.74,11.793a67.477,67.477,0,0,1,3.08,17.685l15.028,7.135-6.029,26.865-16.634.038A67.353,67.353,0,0,1,801.25-330.7l5.583,15.679-23.256,14.735-11.794-11.741a67.454,67.454,0,0,1-17.684,3.076l-7.135,15.028L720.1-299.945l-.037-16.636a67.34,67.34,0,0,1-14.671-10.338l-15.681,5.583L674.972-344.6l11.745-11.792a67.65,67.65,0,0,1-3.08-17.683l-15.024-7.138,6.025-26.866,16.634-.034a67.3,67.3,0,0,1,10.338-14.675l-5.581-15.68L719.284-453.2l11.794,11.742a67.475,67.475,0,0,1,17.685-3.077l7.135-15.027,26.863,6.026L782.8-436.9" transform="translate(-8.367 528.751)"/><path class="c" d="M634.249-488.691a16.46,16.46,0,0,1,5.156,1.613,21.7,21.7,0,0,1,10.274,10.4,21.977,21.977,0,0,1,2.1,10.045,22.314,22.314,0,0,1-3.455,11.26,21.028,21.028,0,0,1-4.195,4.879,21.055,21.055,0,0,1-5.668,3.6,22.439,22.439,0,0,1-13.887,1.371A22.433,22.433,0,0,1,612.6-452.7a21.037,21.037,0,0,1-3.592-5.675,21,21,0,0,1-1.709-6.2,22.314,22.314,0,0,1,1.685-11.659,21.977,21.977,0,0,1,6.187-8.187,21.7,21.7,0,0,1,13.731-5.012,16.424,16.424,0,0,1,5.348.743c-.022.154-1.905-.379-5.336-.257a21.739,21.739,0,0,0-13.173,5.2,21.266,21.266,0,0,0-5.8,7.917,21.386,21.386,0,0,0-1.5,11.1,19.94,19.94,0,0,0,1.659,5.867,19.9,19.9,0,0,0,3.422,5.353,21.328,21.328,0,0,0,11.323,6.754,21.332,21.332,0,0,0,13.12-1.273,19.983,19.983,0,0,0,5.38-3.379,19.993,19.993,0,0,0,4-4.6,21.418,21.418,0,0,0,3.39-10.677,21.306,21.306,0,0,0-1.864-9.636,21.735,21.735,0,0,0-9.691-10.334c-3.048-1.576-4.979-1.9-4.936-2.047" transform="translate(-7.598 529.125)"/><path class="c" d="M651.227-512.533a4.485,4.485,0,0,1-.049-.765c-.012-.57-.03-1.334-.054-2.324-.029-2.133-.071-5.2-.126-9.19l.155.194L631.3-528.953l.354-.173-5.22,11.113-.095.2-.224.009a49.746,49.746,0,0,0-12.947,2.3l-.236.075-.178-.175-8.732-8.645.553.061-17.143,10.918.2-.582c1.281,3.581,2.7,7.525,4.142,11.568l.105.294-.213.23a49.449,49.449,0,0,0-7.533,10.732l-.15.29h-.329l-12.279.045.543-.436c-1.388,6.232-2.887,12.952-4.423,19.839l-.319-.653c3.456,1.637,7.251,3.435,11.1,5.257l.325.154.014.361a49.6,49.6,0,0,0,2.257,12.9l.111.349-.259.261c-2.714,2.728-5.675,5.7-8.664,8.711l.083-.761c3.446,5.435,7.14,11.261,10.886,17.165l-.735-.251,11.575-4.124.358-.126.278.258a49.269,49.269,0,0,0,10.686,7.529l.005,0h0c.151.247-.334-.552.338.556v.761l0,.773,0,1.544.006,3.08q.006,3.075.012,6.122l-.487-.608,19.833,4.454-.694.338q2.662-5.6,5.272-11.093l.161-.336.37-.014a49.19,49.19,0,0,0,12.9-2.234l.35-.111.261.259,8.7,8.674-.739-.082,17.178-10.861-.234.679q-2.09-5.893-4.105-11.579l-.115-.321.232-.249a49.3,49.3,0,0,0,7.563-10.7l.153-.291h.327l12.279-.005-.506.406c1.58-6.974,3.072-13.556,4.491-19.823l.262.537-11.081-5.3-.246-.117-.009-.271a49.619,49.619,0,0,0-2.219-12.949l-.075-.24.176-.175c3.161-3.152,6.008-5.993,8.7-8.677l-.05.46-10.8-17.218.331.113-11.6,4.046-.117.04-.087-.082a51.713,51.713,0,0,0-7.889-6.076l-2.112-1.273a4.818,4.818,0,0,1-.694-.429,6.344,6.344,0,0,1,.745.338c.485.249,1.218.627,2.169,1.188a48.179,48.179,0,0,1,8.054,5.957l-.2-.041,11.547-4.195.209-.076.122.19c3.094,4.839,6.711,10.49,10.953,17.123l.158.247-.209.212c-2.67,2.7-5.5,5.56-8.637,8.735l.1-.413a50.239,50.239,0,0,1,2.331,13.161l-.255-.387,11.106,5.24.345.165-.082.374c-1.4,6.272-2.86,12.862-4.412,19.842l-.089.406h-.417l-12.279.047.478-.291a50.291,50.291,0,0,1-7.7,10.964l.116-.569q2.03,5.682,4.134,11.569l.155.433-.39.246q-8.368,5.315-17.157,10.9l-.4.255-.34-.336-8.712-8.661.608.148a50.348,50.348,0,0,1-13.215,2.307l.532-.35q-2.607,5.494-5.261,11.1l-.212.448-.484-.108L604.8-410.815l-.487-.109v-.5q-.006-3.047-.013-6.122l-.007-3.08,0-1.543v-1.535c.673,1.106.186.305.334.552h0l-.005,0a50.5,50.5,0,0,1-10.958-7.723l.635.132-11.576,4.117-.47.166-.266-.42L571.1-444.061l-.262-.415.346-.346,8.674-8.7-.147.608a50.749,50.749,0,0,1-2.29-13.213l.338.513c-3.841-1.83-7.633-3.635-11.086-5.28l-.421-.2.1-.454c1.551-6.883,3.066-13.6,4.471-19.827l.1-.436h.446l12.279-.007-.477.29a50.36,50.36,0,0,1,7.731-10.935l-.108.523c-1.431-4.046-2.828-8-4.1-11.581l-.132-.374.332-.208,17.194-10.839.3-.191.251.251,8.682,8.694-.412-.1a50.176,50.176,0,0,1,13.165-2.248l-.317.209c1.913-3.989,3.7-7.717,5.311-11.072l.111-.23.246.057,19.806,4.564.158.036,0,.158c-.036,3.953-.063,7-.083,9.111-.02,1-.033,1.777-.043,2.355a6.7,6.7,0,0,1-.042.815" transform="translate(-7.086 529.628)"/><path class="c" d="M96.789-204.74a11.3,11.3,0,0,1,3.316,1.662,14.9,14.9,0,0,1,5.814,8.18,15.074,15.074,0,0,1,.313,7.037,15.325,15.325,0,0,1-3.584,7.248,14.421,14.421,0,0,1-3.38,2.844,14.428,14.428,0,0,1-4.238,1.812,15.407,15.407,0,0,1-9.56-.6,15.412,15.412,0,0,1-7.322-6.182,14.42,14.42,0,0,1-1.807-4.24,14.437,14.437,0,0,1-.475-4.392,15.335,15.335,0,0,1,2.429-7.716,15.094,15.094,0,0,1,5.1-4.864,14.912,14.912,0,0,1,9.857-1.883,11.309,11.309,0,0,1,3.543,1.094c-.033.1-1.25-.467-3.588-.762a14.922,14.922,0,0,0-9.5,2.074,14.606,14.606,0,0,0-4.806,4.723,14.713,14.713,0,0,0-2.238,7.359,13.69,13.69,0,0,0,.477,4.159,13.7,13.7,0,0,0,1.728,4.005,14.633,14.633,0,0,0,6.928,5.825,14.632,14.632,0,0,0,9.03.586,13.681,13.681,0,0,0,4.018-1.7,13.7,13.7,0,0,0,3.221-2.673A14.7,14.7,0,0,0,105.533-188a14.615,14.615,0,0,0-.2-6.736,14.925,14.925,0,0,0-5.425-8.071c-1.893-1.4-3.166-1.835-3.119-1.932" transform="translate(-0.949 525.578)"/><path class="c" d="M110.873-218.958a3.387,3.387,0,0,1,.052-.525c.054-.387.126-.907.22-1.58.214-1.45.525-3.535.928-6.242l.083.149c-3.322-1.313-7.692-3.04-12.977-5.127l.26-.078c-1.444,2.107-3.048,4.449-4.765,6.953l-.086.126-.153-.018a34.041,34.041,0,0,0-9.026.129l-.168.024-.1-.138-4.963-6.82.368.1c-4.037,1.735-8.322,3.575-12.82,5.506l.2-.371c.474,2.567,1,5.4,1.532,8.295l.039.212-.17.132a33.907,33.907,0,0,0-6.288,6.441l-.134.18-.222-.037c-2.581-.409-5.426-.864-8.325-1.325l.416-.234c-1.629,4.068-3.386,8.457-5.186,12.954l-.144-.478c2.162,1.49,4.535,3.127,6.94,4.787l.2.14-.03.245a34.06,34.06,0,0,0,.107,8.987l.036.249-.2.147-6.833,4.948.141-.507L55.283-168.9l-.47-.251,8.3-1.517.256-.047.159.205a33.819,33.819,0,0,0,6.411,6.282h0c.075.186-.166-.411.168.413v.008l0,.017-.005.033-.01.066-.022.132-.042.262-.084.523-.168,1.047-.336,2.088q-.334,2.084-.667,4.15l-.263-.466,12.948,5.2-.508.153q2.422-3.5,4.8-6.933l.146-.209.253.03a33.855,33.855,0,0,0,8.986-.091l.25-.037.147.2q2.505,3.47,4.938,6.837l-.492-.136,12.838-5.464-.234.434q-.765-4.224-1.5-8.3l-.042-.23.184-.143a33.874,33.874,0,0,0,6.306-6.417l.135-.179.222.036,8.321,1.35-.388.22c1.84-4.552,3.577-8.847,5.23-12.937l.118.394-6.924-4.811-.154-.107.023-.184a34.03,34.03,0,0,0-.074-9.02l-.024-.17.138-.1,6.85-4.92-.085.3c-2.1-4.981-3.889-9.223-5.42-12.857l.212.113-8.307,1.461-.083.014-.051-.066a35.539,35.539,0,0,0-4.674-4.987l-1.29-1.094a3.7,3.7,0,0,1-.424-.367,3.864,3.864,0,0,1,.469.311c.3.223.756.56,1.339,1.044a33.036,33.036,0,0,1,4.8,4.924l-.134-.051c2.263-.427,4.978-.941,8.287-1.567l.15-.029.062.142,5.533,12.811.08.186-.165.118c-2.108,1.537-4.34,3.163-6.817,4.966l.114-.269a34.5,34.5,0,0,1,.127,9.176l-.131-.291c2.211,1.519,4.5,3.1,6.948,4.777l.216.147-.1.246c-1.637,4.1-3.356,8.4-5.178,12.957l-.105.266-.283-.046-8.325-1.322.356-.145a34.518,34.518,0,0,1-6.428,6.579l.142-.373q.749,4.076,1.525,8.3l.057.311-.291.124-12.827,5.49-.3.128-.192-.265-4.949-6.829.4.167a34.582,34.582,0,0,1-9.209.105l.4-.179-4.79,6.939-.193.28-.316-.128-12.951-5.2-.318-.128.055-.34q.332-2.066.666-4.149l.335-2.088.168-1.047.084-.524.042-.262.022-.13.011-.066.005-.034,0-.016v-.008c.334.824.092.228.166.411h0l0,0a34.634,34.634,0,0,1-6.573-6.441l.415.158-8.3,1.512-.335.062-.134-.313c-1.882-4.417-3.739-8.773-5.472-12.837l-.132-.309.273-.2,6.838-4.937-.168.4a34.811,34.811,0,0,1-.094-9.206l.173.386-6.929-4.8-.263-.18.119-.3c1.811-4.492,3.579-8.877,5.218-12.941l.114-.286.3.049c2.9.471,5.742.932,8.322,1.351l-.356.144a34.6,34.6,0,0,1,6.446-6.557l-.131.344-1.5-8.3-.048-.269.248-.105,12.846-5.446.226-.1.143.2,4.923,6.848-.268-.115A34.57,34.57,0,0,1,94.5-225.8l-.238.108,4.82-6.916.1-.144.16.066c5.261,2.15,9.61,3.925,12.918,5.277l.1.042-.018.107-1.062,6.165c-.124.677-.219,1.2-.29,1.591a4.241,4.241,0,0,1-.119.549" transform="translate(-0.61 525.913)"/><path class="d" d="M196.491-123.891a26.232,26.232,0,0,0-34.122,14.561A26.235,26.235,0,0,0,176.93-75.208a26.232,26.232,0,0,0,34.122-14.561A26.232,26.232,0,0,0,196.491-123.891Zm25.277-24.333a60.011,60.011,0,0,1,11.388,11.155l14.54-2.656,9.6,22.492-11.976,8.662a59.965,59.965,0,0,1,.176,15.944l12.155,8.4-9.12,22.689-14.587-2.341a59.757,59.757,0,0,1-11.157,11.386l2.654,14.542-22.488,9.6-8.664-11.976a59.918,59.918,0,0,1-15.943.172L169.944-28l-22.695-9.117L149.594-51.7a59.831,59.831,0,0,1-11.389-11.157L123.663-60.2l-9.6-22.492,11.979-8.662a60.042,60.042,0,0,1-.175-15.942l-12.153-8.4,9.117-22.693,14.587,2.344a59.843,59.843,0,0,1,11.159-11.389l-2.656-14.541,22.49-9.6,8.664,11.978a59.905,59.905,0,0,1,15.943-.174l8.4-12.155,22.69,9.118-2.34,14.588" transform="translate(-1.423 525.152)"/><path class="e" d="M220.116-297.091H61.42V-494.456l121.394.358,37.3,40.505v156.5" transform="translate(-0.769 529.188)"/><path class="f" d="M109.2-381.01c-.205.2-2.841-2.184-6.938-6.19s-9.657-9.642-15.709-15.956l-.678-.707.674-.712.065-.068c6.032-6.367,11.576-12.05,15.663-16.095s6.717-6.446,6.924-6.251-2.052,2.953-5.868,7.252S94.139-409.6,88.107-403.228l-.065.067,0-1.418c6.051,6.316,11.443,12.109,15.273,16.374s6.094,7,5.89,7.2" transform="translate(-1.075 528.344)"/><path class="f" d="M173.985-426.99c.205-.195,2.841,2.184,6.937,6.191s9.658,9.64,15.71,15.955l.678.707-.674.712-.065.068C190.54-396.989,185-391.3,180.909-387.261s-6.718,6.446-6.924,6.251,2.051-2.953,5.868-7.252,9.193-10.142,15.224-16.509l.066-.068,0,1.419c-6.051-6.316-11.444-12.109-15.273-16.374s-6.093-7-5.889-7.2" transform="translate(-2.177 528.344)"/><path class="f" d="M122.187-373.882c-.484-.3,7.753-14.645,18.4-32.043s19.669-31.269,20.154-30.973-7.751,14.642-18.4,32.047-19.667,31.265-20.152,30.969" transform="translate(-1.529 528.468)"/><path class="c" d="M184.34-494.083l-.142,33.06a8.506,8.506,0,0,0,8.756,8.538l28.7-1.074L184.34-494.083" transform="translate(-2.305 529.183)"/><path class="g" d="M113.042-316.3H42.662v-42.771h70.38V-316.3" transform="translate(-0.534 527.494)"/><path class="h" d="M62.913-328.8l1.831-2.145a5.508,5.508,0,0,0,4.607,2.619c2.494,0,3.788-1.515,3.788-4.482v-12.4H65.154v-2.747h11.11v14.991c0,4.924-2.4,7.355-6.912,7.355a7.7,7.7,0,0,1-6.438-3.189" transform="translate(-0.787 527.354)"/><path class="h" d="M80.9-328.39l1.168-2.462a11.369,11.369,0,0,0,7.291,2.557c3.819,0,5.46-1.484,5.46-3.409,0-5.4-13.382-1.988-13.382-10.195,0-3.409,2.651-6.312,8.459-6.312a13.009,13.009,0,0,1,7.1,1.957l-1.041,2.525a11.41,11.41,0,0,0-6.06-1.8c-3.757,0-5.365,1.577-5.365,3.5,0,5.4,13.381,2.02,13.381,10.13,0,3.377-2.714,6.282-8.553,6.282-3.377,0-6.691-1.136-8.459-2.778" transform="translate(-1.012 527.358)"/><path class="g" d="M359.012-483.032a10.441,10.441,0,0,0-5.744,9.444l.491,78.3a10.472,10.472,0,0,0,5.057,8.94l65.016,38.75h.032L486.1-387.949a10.481,10.481,0,0,0,4.729-8.866l-.513-81.752a10.428,10.428,0,0,0-6.218-9.534L422.8-514.593l-63.789,31.561" transform="translate(-4.421 529.44)"/><path class="i" d="M424.728-347.6h0M449.7-363.784l37.274-24.166a10.476,10.476,0,0,0,4.729-8.741,10.432,10.432,0,0,1-4.825,8.819L449.7-363.784M491.7-398.555l-.5-80.012a10.428,10.428,0,0,0-6.218-9.534l-61.294-26.492,61.382,26.5a10.209,10.209,0,0,1,6.162,9.311l.47,80.223" transform="translate(-5.302 529.44)"/><path class="j" d="M424.728-347.6l-1.047-166.991L484.975-488.1a10.428,10.428,0,0,1,6.218,9.534l.5,80.012.012,1.858v.007a10.476,10.476,0,0,1-4.729,8.741L449.7-363.784,424.728-347.6h0" transform="translate(-5.302 529.44)"/><path class="h" d="M437.773-428.652l-15.617-35.722-15.168,35.915Zm3.619,8.332-37.919.238-7.735,18.324-10.5.067,31.856-73.3,10.091-.063,32.874,72.9-10.7.067-7.964-18.226" transform="translate(-4.821 528.945)"/><path class="f" d="M751.628-176.447H393.7V-385H751.628v208.552" transform="translate(-4.927 527.818)"/><path class="c" d="M422.049-186.848c-.19,0-.344-42.646-.344-95.242,0-52.613.154-95.251.344-95.251s.342,42.638.342,95.251c0,52.6-.153,95.242-.342,95.242" transform="translate(-5.277 527.722)"/><path class="c" d="M414.45-369.209c0,.19-2.653.342-5.926.342s-5.928-.153-5.928-.342,2.653-.344,5.928-.344,5.926.154,5.926.344" transform="translate(-5.038 527.625)"/><path class="c" d="M414.45-356.5c0,.19-2.653.344-5.926.344s-5.928-.154-5.928-.344,2.653-.342,5.928-.342,5.926.153,5.926.342" transform="translate(-5.038 527.466)"/><path class="c" d="M414.45-343.786c0,.19-2.653.342-5.926.342s-5.928-.153-5.928-.342,2.653-.344,5.928-.344,5.926.154,5.926.344" transform="translate(-5.038 527.307)"/><path class="c" d="M414.45-331.076c0,.19-2.653.342-5.926.342s-5.928-.153-5.928-.342,2.653-.342,5.928-.342,5.926.153,5.926.342" transform="translate(-5.038 527.148)"/><path class="c" d="M414.45-318.365c0,.19-2.653.344-5.926.344s-5.928-.154-5.928-.344,2.653-.342,5.928-.342,5.926.154,5.926.342" transform="translate(-5.038 526.988)"/><path class="c" d="M414.45-305.653c0,.19-2.653.342-5.926.342s-5.928-.153-5.928-.342,2.653-.344,5.928-.344,5.926.154,5.926.344" transform="translate(-5.038 526.829)"/><path class="c" d="M414.45-292.942c0,.19-2.653.344-5.926.344s-5.928-.154-5.928-.344,2.653-.342,5.928-.342,5.926.153,5.926.342" transform="translate(-5.038 526.67)"/><path class="c" d="M414.45-280.23c0,.19-2.653.342-5.926.342s-5.928-.153-5.928-.342,2.653-.344,5.928-.344,5.926.154,5.926.344" transform="translate(-5.038 526.511)"/><path class="c" d="M414.45-267.52c0,.19-2.653.342-5.926.342s-5.928-.153-5.928-.342,2.653-.344,5.928-.344,5.926.154,5.926.344" transform="translate(-5.038 526.352)"/><path class="c" d="M414.45-254.808c0,.188-2.653.342-5.926.342s-5.928-.154-5.928-.342,2.653-.344,5.928-.344,5.926.153,5.926.344" transform="translate(-5.038 526.193)"/><path class="c" d="M414.45-242.1c0,.19-2.653.342-5.926.342s-5.928-.153-5.928-.342,2.653-.344,5.928-.344,5.926.155,5.926.344" transform="translate(-5.038 526.034)"/><path class="c" d="M414.45-229.386c0,.19-2.653.344-5.926.344s-5.928-.154-5.928-.344,2.653-.342,5.928-.342,5.926.154,5.926.342" transform="translate(-5.038 525.875)"/><path class="c" d="M414.45-216.674c0,.19-2.653.342-5.926.342s-5.928-.153-5.928-.342,2.653-.342,5.928-.342,5.926.153,5.926.342" transform="translate(-5.038 525.716)"/><path class="c" d="M414.45-203.964c0,.19-2.653.342-5.926.342s-5.928-.153-5.928-.342,2.653-.342,5.928-.342,5.926.153,5.926.342" transform="translate(-5.038 525.557)"/><path class="c" d="M414.45-191.252c0,.188-2.653.342-5.926.342s-5.928-.154-5.928-.342,2.653-.344,5.928-.344,5.926.153,5.926.344" transform="translate(-5.038 525.398)"/><path class="k" d="M462.324-369.958c0,.19-6.886.342-15.38.342s-15.384-.153-15.384-.342,6.886-.344,15.384-.344,15.38.154,15.38.344" transform="translate(-5.401 527.634)"/><path class="k" d="M462.324-191.252c0,.188-6.886.342-15.38.342s-15.384-.154-15.384-.342,6.886-.344,15.384-.344,15.38.153,15.38.344" transform="translate(-5.401 525.398)"/><path class="k" d="M505.368-343.786c0,.19-12.886.342-28.777.342s-28.781-.153-28.781-.342,12.883-.344,28.781-.344,28.777.154,28.777.344" transform="translate(-5.604 527.307)"/><path class="c" d="M572.765-343.786c0,.19-12.885.342-28.777.342s-28.781-.153-28.781-.342,12.882-.344,28.781-.344,28.777.154,28.777.344" transform="translate(-6.448 527.307)"/><path class="c" d="M546.662-331.076c0,.19-18.991.342-42.41.342s-42.414-.153-42.414-.342,18.986-.342,42.414-.342,42.41.153,42.41.342" transform="translate(-5.78 527.148)"/><path class="c" d="M546.662-318.365c0,.19-18.991.344-42.41.344s-42.414-.154-42.414-.344,18.986-.342,42.414-.342,42.41.154,42.41.342" transform="translate(-5.78 526.988)"/><path class="c" d="M605.789-280.23c0,.19-18.989.342-42.409.342s-42.414-.153-42.414-.342,18.986-.344,42.414-.344,42.409.154,42.409.344" transform="translate(-6.52 526.511)"/><path class="c" d="M580.274-305.653c0,.19-18.99.342-42.409.342s-42.414-.153-42.414-.342S514.437-306,537.865-306s42.409.154,42.409.344" transform="translate(-6.2 526.829)"/><path class="c" d="M685.243-305.653c0,.19-18.99.342-42.409.342s-42.414-.153-42.414-.342S619.406-306,642.834-306s42.409.154,42.409.344" transform="translate(-7.514 526.829)"/><path class="l" d="M648.738-331.076c0,.19-18.989.342-42.41.342s-42.412-.153-42.412-.342,18.985-.342,42.412-.342,42.41.153,42.41.342" transform="translate(-7.057 527.148)"/><path class="l" d="M708.074-280.23c0,.19-18.99.342-42.41.342s-42.413-.153-42.413-.342,18.985-.344,42.413-.344,42.41.154,42.41.344" transform="translate(-7.8 526.511)"/><path class="m" d="M695.632-318.365c0,.19-29.489.344-65.856.344s-65.86-.154-65.86-.344,29.481-.342,65.86-.342,65.856.154,65.856.342" transform="translate(-7.057 526.988)"/><path class="l" d="M462.324-356.5c0,.19-6.886.344-15.38.344s-15.384-.154-15.384-.344,6.886-.342,15.384-.342,15.38.153,15.38.342" transform="translate(-5.401 527.466)"/><path class="l" d="M462.324-203.964c0,.19-6.886.342-15.38.342s-15.384-.153-15.384-.342,6.886-.342,15.384-.342,15.38.153,15.38.342" transform="translate(-5.401 525.557)"/><path class="l" d="M477.756-305.653c0,.19-6.886.342-15.38.342s-15.382-.153-15.382-.342S453.88-306,462.376-306s15.38.154,15.38.344" transform="translate(-5.594 526.829)"/><path class="k" d="M727.432-305.653c0,.19-6.886.342-15.38.342s-15.384-.153-15.384-.342,6.886-.344,15.384-.344,15.38.154,15.38.344" transform="translate(-8.718 526.829)"/><path class="k" d="M505.368-254.884c0,.19-12.886.344-28.777.344s-28.781-.154-28.781-.344,12.883-.342,28.781-.342,28.777.154,28.777.342" transform="translate(-5.604 526.194)"/><path class="c" d="M572.765-254.884c0,.19-12.885.344-28.777.344s-28.781-.154-28.781-.344,12.882-.342,28.781-.342,28.777.154,28.777.342" transform="translate(-6.448 526.194)"/><path class="c" d="M546.662-242.173c0,.191-18.991.344-42.41.344s-42.414-.153-42.414-.344,18.986-.341,42.414-.341,42.41.153,42.41.341" transform="translate(-5.78 526.035)"/><path class="c" d="M546.662-229.46c0,.188-18.991.341-42.41.341s-42.414-.153-42.414-.341,18.986-.344,42.414-.344,42.41.153,42.41.344" transform="translate(-5.78 525.876)"/><path class="c" d="M580.274-216.749c0,.188-18.99.342-42.409.342s-42.414-.154-42.414-.342,18.986-.344,42.414-.344,42.409.154,42.409.344" transform="translate(-6.2 525.717)"/><path class="c" d="M685.243-216.749c0,.188-18.99.342-42.409.342s-42.414-.154-42.414-.342,18.986-.344,42.414-.344,42.409.154,42.409.344" transform="translate(-7.514 525.717)"/><path class="l" d="M648.738-242.173c0,.191-18.989.344-42.41.344s-42.412-.153-42.412-.344,18.985-.341,42.412-.341,42.41.153,42.41.341" transform="translate(-7.057 526.035)"/><path class="m" d="M695.632-229.46c0,.188-29.489.341-65.856.341s-65.86-.153-65.86-.341,29.481-.344,65.86-.344,65.856.153,65.856.344" transform="translate(-7.057 525.876)"/><path class="l" d="M477.756-216.749c0,.188-6.886.342-15.38.342s-15.382-.154-15.382-.342,6.886-.344,15.382-.344,15.38.154,15.38.344" transform="translate(-5.594 525.717)"/><path class="k" d="M727.432-216.749c0,.188-6.886.342-15.38.342s-15.384-.154-15.384-.342,6.886-.344,15.384-.344,15.38.154,15.38.344" transform="translate(-8.718 525.717)"/><path class="g" d="M803.275-177.343c-.242.142-2.466-3.562-6.958-9.905-2.246-3.168-5.074-6.99-8.586-11.227a124.2,124.2,0,0,0-12.89-13.446,71.726,71.726,0,0,0-8.512-6.545,32.336,32.336,0,0,0-10.3-4.635,12.647,12.647,0,0,0-5.55-.075,8.258,8.258,0,0,0-4.533,2.9,13.533,13.533,0,0,0-2.5,5.377,29.458,29.458,0,0,0-.784,6.409,62.906,62.906,0,0,0,1.5,13.68,111.075,111.075,0,0,0,3.985,13.98A168.322,168.322,0,0,0,761.1-153a168.214,168.214,0,0,0,17.623,25.137,111.151,111.151,0,0,0,10.116,10.444,62.9,62.9,0,0,0,11.1,8.142,29.642,29.642,0,0,0,5.945,2.528,13.527,13.527,0,0,0,5.9.527,8.23,8.23,0,0,0,4.781-2.476,12.666,12.666,0,0,0,2.711-4.843,32.4,32.4,0,0,0,1.136-11.243A71.988,71.988,0,0,0,819-135.432a124.194,124.194,0,0,0-5.2-17.885c-1.913-5.16-3.809-9.519-5.429-13.049-3.248-7.061-5.343-10.837-5.1-10.977a11.046,11.046,0,0,1,1.842,2.558c1.089,1.747,2.642,4.358,4.454,7.83s3.909,7.784,6.02,12.945a118.271,118.271,0,0,1,5.783,18.07,72.466,72.466,0,0,1,1.683,11,34.668,34.668,0,0,1-1.068,12.251,15.443,15.443,0,0,1-3.289,6,11.23,11.23,0,0,1-6.417,3.436,16.465,16.465,0,0,1-7.23-.524,32.5,32.5,0,0,1-6.624-2.73,65.363,65.363,0,0,1-11.764-8.47,112.624,112.624,0,0,1-10.483-10.7,167.631,167.631,0,0,1-18.047-25.614,167.462,167.462,0,0,1-13.153-28.43,112.6,112.6,0,0,1-4.022-14.425,65.4,65.4,0,0,1-1.454-14.419,32.494,32.494,0,0,1,.949-7.1,16.473,16.473,0,0,1,3.159-6.524,11.24,11.24,0,0,1,6.184-3.839,15.448,15.448,0,0,1,6.841.15,34.706,34.706,0,0,1,11.144,5.2,72.524,72.524,0,0,1,8.683,6.958,118.078,118.078,0,0,1,12.758,14.042c3.413,4.408,6.109,8.379,8.2,11.688s3.587,5.955,4.554,7.772a10.957,10.957,0,0,1,1.3,2.874" transform="translate(-9.254 525.833)"/><path class="g" d="M762.658-177.376c.24.145-1.9,3.739-5.222,10.488-1.658,3.372-3.6,7.543-5.563,12.494a114.573,114.573,0,0,0-5.356,17.2,64.609,64.609,0,0,0-1.48,10.27,30.348,30.348,0,0,0,1.057,10.853,12.624,12.624,0,0,0,2.615,4.7,8.644,8.644,0,0,0,4.587,2.562,13.287,13.287,0,0,0,5.729-.158,26.989,26.989,0,0,0,5.864-2.11,57.813,57.813,0,0,0,11.1-7.3,103.536,103.536,0,0,0,10.2-9.672A155.218,155.218,0,0,0,804.06-151.75a155.25,155.25,0,0,0,13.231-26.574,103.426,103.426,0,0,0,4.107-13.444,57.775,57.775,0,0,0,1.584-13.2,26.974,26.974,0,0,0-.731-6.191,13.282,13.282,0,0,0-2.415-5.2,8.644,8.644,0,0,0-4.342-2.961,12.589,12.589,0,0,0-5.367-.242,30.365,30.365,0,0,0-10.187,3.9,64.873,64.873,0,0,0-8.529,5.909,114.586,114.586,0,0,0-13,12.469c-3.551,3.967-6.419,7.564-8.7,10.552-4.557,5.984-6.818,9.5-7.055,9.353a10.214,10.214,0,0,1,1.328-2.749c.99-1.729,2.506-4.253,4.644-7.382s4.87-6.889,8.333-11.031a109.2,109.2,0,0,1,12.906-13.082,65.887,65.887,0,0,1,8.737-6.324,32.7,32.7,0,0,1,11.078-4.42,15.4,15.4,0,0,1,6.627.236,11.626,11.626,0,0,1,5.868,3.88,16.257,16.257,0,0,1,3.065,6.326,29.816,29.816,0,0,1,.894,6.894,60.3,60.3,0,0,1-1.544,13.971,105.131,105.131,0,0,1-4.158,13.908,154.587,154.587,0,0,1-13.461,27.2,154.71,154.71,0,0,1-18.333,24.179,104.948,104.948,0,0,1-10.589,9.924,60.268,60.268,0,0,1-11.812,7.617,29.914,29.914,0,0,1-6.569,2.276,16.26,16.26,0,0,1-7.028.08,11.622,11.622,0,0,1-6.091-3.518,15.4,15.4,0,0,1-3.168-5.824,32.7,32.7,0,0,1-.99-11.887,65.816,65.816,0,0,1,1.759-10.641,109.2,109.2,0,0,1,5.946-17.389c2.165-4.947,4.3-9.074,6.154-12.38s3.43-5.793,4.537-7.451c1.126-1.647,1.764-2.479,1.866-2.416" transform="translate(-9.289 525.786)"/><path class="g" d="M780.023-192.15c0,.282-4.179.354-11.667,1.078-3.742.366-8.308.912-13.551,1.845a114.344,114.344,0,0,0-17.444,4.5,64.965,64.965,0,0,0-9.514,4.145,30.365,30.365,0,0,0-8.671,6.612,12.6,12.6,0,0,0-2.616,4.693,8.639,8.639,0,0,0,.234,5.249,13.257,13.257,0,0,0,3.149,4.787,26.935,26.935,0,0,0,4.879,3.877,57.832,57.832,0,0,0,12.053,5.6,103.664,103.664,0,0,0,13.589,3.58,155.134,155.134,0,0,0,29.552,2.733,155.219,155.219,0,0,0,29.56-2.732,103.654,103.654,0,0,0,13.592-3.58,57.855,57.855,0,0,0,12.055-5.6,26.9,26.9,0,0,0,4.881-3.879,13.253,13.253,0,0,0,3.148-4.787,8.632,8.632,0,0,0,.234-5.251,12.6,12.6,0,0,0-2.619-4.691,30.346,30.346,0,0,0-8.673-6.612,64.747,64.747,0,0,0-9.513-4.143,114.47,114.47,0,0,0-17.444-4.5c-5.243-.931-9.809-1.477-13.55-1.843-7.488-.724-11.668-.8-11.665-1.078a10.236,10.236,0,0,1,3.036-.315c1.992-.068,4.935-.108,8.721.063s8.421.517,13.765,1.281a109.271,109.271,0,0,1,17.916,4.092,65.99,65.99,0,0,1,9.975,4.1,32.677,32.677,0,0,1,9.588,7.1,15.384,15.384,0,0,1,3.286,5.758,11.614,11.614,0,0,1-.212,7.03,16.253,16.253,0,0,1-3.766,5.937,29.878,29.878,0,0,1-5.393,4.388,60.278,60.278,0,0,1-12.7,6.037,104.739,104.739,0,0,1-14.012,3.783,154.676,154.676,0,0,1-30.217,2.868,154.694,154.694,0,0,1-30.209-2.868,104.825,104.825,0,0,1-14.008-3.783,60.227,60.227,0,0,1-12.693-6.037,29.689,29.689,0,0,1-5.393-4.388,16.225,16.225,0,0,1-3.766-5.934,11.6,11.6,0,0,1-.213-7.03,15.4,15.4,0,0,1,3.284-5.759,32.694,32.694,0,0,1,9.588-7.1,65.849,65.849,0,0,1,9.974-4.1,109.147,109.147,0,0,1,17.917-4.092c5.344-.765,9.979-1.119,13.767-1.282s6.729-.132,8.723-.063a10.254,10.254,0,0,1,3.036.315" transform="translate(-8.926 525.409)"/><path class="g" d="M795.061-163.79a11.027,11.027,0,0,1-11.027,11.027,11.027,11.027,0,0,1-11.027-11.027,11.028,11.028,0,0,1,11.027-11.027,11.028,11.028,0,0,1,11.027,11.027" transform="translate(-9.674 525.188)"/><path class="m" d="M584.593-7.8H212.243a19.18,19.18,0,0,1-19.181-19.179V-269.2A10.206,10.206,0,0,1,203.268-279.4H594.9a8.873,8.873,0,0,1,8.874,8.873V-26.983A19.18,19.18,0,0,1,584.593-7.8" transform="translate(-2.416 526.497)"/><path class="m" d="M602.576-.939H193.736A18.066,18.066,0,0,1,175.67-19.006v-5.7H620.642v5.7A18.066,18.066,0,0,1,602.576-.939" transform="translate(-2.198 523.309)"/><path class="c" d="M591.738-39.113H204.226V-268.474H591.738V-39.113" transform="translate(-2.556 526.36)"/><path class="f" d="M360.019-24.7l5.522,8.783h77.7l5.127-8.783H360.019" transform="translate(-4.505 523.309)"/><path class="f" d="M603.839-23.475H193.129v-1.308h410.71v1.308" transform="translate(-2.417 523.31)"/><path class="f" d="M581.322-38.945H215.87V-255.017H581.322V-38.945" transform="translate(-2.702 526.191)"/><path class="c" d="M244.26-45.233c-.19,0-.344-46.019-.344-102.774,0-56.774.154-102.782.344-102.782s.342,46.009.342,102.782c0,56.755-.154,102.774-.342,102.774" transform="translate(-3.053 526.139)"/><path class="c" d="M236.649-231.926c0,.19-2.658.342-5.937.342s-5.937-.153-5.937-.342,2.658-.344,5.937-.344,5.937.155,5.937.344" transform="translate(-2.813 525.907)"/><path class="c" d="M237.112-243.738c0,.19-2.658.342-5.935.342s-5.938-.153-5.938-.342,2.658-.342,5.938-.342,5.935.153,5.935.342" transform="translate(-2.819 526.055)"/><path class="c" d="M236.649-219.194c0,.188-2.658.342-5.937.342s-5.937-.154-5.937-.342,2.658-.344,5.937-.344,5.937.153,5.937.344" transform="translate(-2.813 525.747)"/><path class="c" d="M236.649-206.463c0,.188-2.658.341-5.937.341s-5.937-.153-5.937-.341,2.658-.344,5.937-.344,5.937.153,5.937.344" transform="translate(-2.813 525.588)"/><path class="c" d="M236.649-193.731c0,.188-2.658.341-5.937.341s-5.937-.153-5.937-.341,2.658-.344,5.937-.344,5.937.153,5.937.344" transform="translate(-2.813 525.429)"/><path class="c" d="M236.649-181c0,.19-2.658.342-5.937.342s-5.937-.153-5.937-.342,2.658-.342,5.937-.342,5.937.153,5.937.342" transform="translate(-2.813 525.269)"/><path class="c" d="M236.649-168.269c0,.191-2.658.344-5.937.344s-5.937-.153-5.937-.344,2.658-.342,5.937-.342,5.937.154,5.937.342" transform="translate(-2.813 525.11)"/><path class="c" d="M236.649-155.537c0,.191-2.658.344-5.937.344s-5.937-.153-5.937-.344,2.658-.342,5.937-.342,5.937.153,5.937.342" transform="translate(-2.813 524.951)"/><path class="c" d="M236.649-142.805c0,.19-2.658.344-5.937.344s-5.937-.154-5.937-.344,2.658-.342,5.937-.342,5.937.153,5.937.342" transform="translate(-2.813 524.791)"/><path class="c" d="M236.649-130.073c0,.19-2.658.342-5.937.342s-5.937-.152-5.937-.342,2.658-.342,5.937-.342,5.937.153,5.937.342" transform="translate(-2.813 524.632)"/><path class="c" d="M236.649-117.342c0,.188-2.658.342-5.937.342s-5.937-.154-5.937-.342,2.658-.342,5.937-.342,5.937.153,5.937.342" transform="translate(-2.813 524.473)"/><path class="c" d="M236.649-104.611c0,.19-2.658.344-5.937.344s-5.937-.154-5.937-.344,2.658-.342,5.937-.342,5.937.154,5.937.342" transform="translate(-2.813 524.313)"/><path class="c" d="M236.649-91.879c0,.189-2.658.344-5.937.344s-5.937-.154-5.937-.344,2.658-.344,5.937-.344,5.937.156,5.937.344" transform="translate(-2.813 524.154)"/><path class="c" d="M236.649-79.147c0,.19-2.658.344-5.937.344s-5.937-.154-5.937-.344,2.658-.344,5.937-.344,5.937.154,5.937.344" transform="translate(-2.813 523.995)"/><path class="c" d="M236.649-66.415c0,.188-2.658.342-5.937.342s-5.937-.154-5.937-.342,2.658-.344,5.937-.344,5.937.154,5.937.344" transform="translate(-2.813 523.835)"/><path class="c" d="M236.649-53.683c0,.188-2.658.341-5.937.341s-5.937-.153-5.937-.341,2.658-.344,5.937-.344,5.937.154,5.937.344" transform="translate(-2.813 523.676)"/><path class="k" d="M284.6-232.677c0,.188-6.9.342-15.4.342s-15.407-.154-15.407-.342,6.9-.342,15.407-.342,15.4.153,15.4.342" transform="translate(-3.176 525.916)"/><path class="k" d="M284.6-53.683c0,.188-6.9.341-15.4.341s-15.407-.153-15.407-.341,6.9-.344,15.407-.344,15.4.154,15.4.344" transform="translate(-3.176 523.676)"/><path class="k" d="M327.714-206.463c0,.188-12.907.341-28.824.341s-28.827-.153-28.827-.341,12.9-.344,28.827-.344,28.824.153,28.824.344" transform="translate(-3.38 525.588)"/><path class="c" d="M395.219-206.463c0,.188-12.906.341-28.824.341s-28.827-.153-28.827-.341,12.9-.344,28.827-.344,28.824.153,28.824.344" transform="translate(-4.225 525.588)"/><path class="c" d="M369.073-193.731c0,.188-19.02.341-42.478.341s-42.483-.153-42.483-.341,19.016-.344,42.483-.344,42.478.153,42.478.344" transform="translate(-3.556 525.429)"/><path class="c" d="M369.073-181c0,.19-19.02.342-42.478.342s-42.483-.153-42.483-.342,19.016-.342,42.483-.342,42.478.153,42.478.342" transform="translate(-3.556 525.269)"/><path class="c" d="M428.3-142.805c0,.19-19.02.344-42.478.344s-42.482-.154-42.482-.344,19.015-.342,42.482-.342,42.478.153,42.478.342" transform="translate(-4.297 524.791)"/><path class="c" d="M402.74-168.269c0,.191-19.02.344-42.478.344s-42.482-.153-42.482-.344,19.015-.342,42.482-.342,42.478.154,42.478.342" transform="translate(-3.977 525.11)"/><path class="c" d="M507.879-168.269c0,.191-19.02.344-42.479.344s-42.482-.153-42.482-.344,19.016-.342,42.482-.342,42.479.154,42.479.342" transform="translate(-5.293 525.11)"/><path class="l" d="M471.314-193.731c0,.188-19.02.341-42.478.341s-42.483-.153-42.483-.341,19.018-.344,42.483-.344,42.478.153,42.478.344" transform="translate(-4.835 525.429)"/><path class="l" d="M530.745-142.805c0,.19-19.02.344-42.476.344s-42.483-.154-42.483-.344,19.015-.342,42.483-.342,42.476.153,42.476.342" transform="translate(-5.579 524.791)"/><path class="m" d="M518.283-181c0,.19-29.536.342-65.961.342s-65.968-.153-65.968-.342,29.53-.342,65.968-.342,65.961.153,65.961.342" transform="translate(-4.835 525.269)"/><path class="l" d="M284.6-219.194c0,.188-6.9.342-15.4.342s-15.407-.154-15.407-.342,6.9-.344,15.407-.344,15.4.153,15.4.344" transform="translate(-3.176 525.747)"/><path class="l" d="M284.6-66.415c0,.188-6.9.342-15.4.342s-15.407-.154-15.407-.342,6.9-.344,15.407-.344,15.4.154,15.4.344" transform="translate(-3.176 523.835)"/><path class="l" d="M300.057-168.269c0,.191-6.9.344-15.4.344s-15.407-.153-15.407-.344,6.9-.342,15.407-.342,15.4.154,15.4.342" transform="translate(-3.369 525.11)"/><path class="k" d="M550.136-168.269c0,.191-6.9.344-15.407.344s-15.406-.153-15.406-.344,6.9-.342,15.406-.342,15.407.154,15.407.342" transform="translate(-6.499 525.11)"/><path class="k" d="M327.714-117.416c0,.188-12.907.343-28.824.343s-28.827-.154-28.827-.343,12.9-.344,28.827-.344,28.824.153,28.824.344" transform="translate(-3.38 524.474)"/><path class="c" d="M395.219-117.416c0,.188-12.906.343-28.824.343s-28.827-.154-28.827-.343,12.9-.344,28.827-.344,28.824.153,28.824.344" transform="translate(-4.225 524.474)"/><path class="c" d="M369.073-104.685c0,.19-19.02.342-42.478.342s-42.483-.152-42.483-.342,19.016-.343,42.483-.343,42.478.153,42.478.343" transform="translate(-3.556 524.314)"/><path class="c" d="M369.073-91.954c0,.19-19.02.342-42.478.342s-42.483-.153-42.483-.342S303.129-92.3,326.6-92.3s42.478.153,42.478.342" transform="translate(-3.556 524.155)"/><path class="c" d="M402.74-79.223c0,.191-19.02.344-42.478.344s-42.482-.153-42.482-.344,19.015-.341,42.482-.341,42.478.153,42.478.341" transform="translate(-3.977 523.996)"/><path class="c" d="M507.879-79.223c0,.191-19.02.344-42.479.344s-42.482-.153-42.482-.344,19.016-.341,42.482-.341,42.479.153,42.479.341" transform="translate(-5.293 523.996)"/><path class="l" d="M471.314-104.685c0,.19-19.02.342-42.478.342s-42.483-.152-42.483-.342,19.018-.343,42.483-.343,42.478.153,42.478.343" transform="translate(-4.835 524.314)"/><path class="m" d="M518.283-91.954c0,.19-29.536.342-65.961.342s-65.968-.153-65.968-.342,29.53-.342,65.968-.342,65.961.153,65.961.342" transform="translate(-4.835 524.155)"/><path class="l" d="M300.057-79.223c0,.191-6.9.344-15.4.344s-15.407-.153-15.407-.344,6.9-.341,15.407-.341,15.4.153,15.4.341" transform="translate(-3.369 523.996)"/><path class="k" d="M550.136-79.223c0,.191-6.9.344-15.407.344s-15.406-.153-15.406-.344,6.9-.341,15.406-.341,15.407.153,15.407.341" transform="translate(-6.499 523.996)"/><path class="f" d="M856.918-.626c0,.19-191.843.343-428.439.343C191.8-.283,0-.436,0-.626S191.8-.968,428.479-.968c236.6,0,428.439.153,428.439.343" transform="translate(0 523.012)"/><path class="n" d="M692.124-76.038l5.248,16.445a18.994,18.994,0,0,0,14.752,13.218l35.1,6.587,9.548-.305-9.548-11.821-26.388-9a7.071,7.071,0,0,1-5.323-5.055l-10.5-22.853L691.7-80.658l.419,4.62" transform="translate(-8.656 524.112)"/><path class="f" d="M666.292-187.877a11.613,11.613,0,0,0-1.974-7.29c-1.335-2.122-3.293-4.068-5.77-4.456a6.658,6.658,0,0,0-6.833,4.03,8.6,8.6,0,0,0,1.053,8.114,10.976,10.976,0,0,0,3.194,2.991,20.162,20.162,0,0,0-7.954,10.064c-.483,1.4-.814,2.851-1.425,4.2a6.2,6.2,0,0,1-2.908,3.218c-.993.444-2.117.5-3.138.873a5.749,5.749,0,0,0-3.465,4.007,6.977,6.977,0,0,0,.937,5.286,5.425,5.425,0,0,1,1.184,2.456,6.679,6.679,0,0,1-.378,1.822,5.143,5.143,0,0,0,2.305,5.464,5.14,5.14,0,0,0,5.9-.578,7.032,7.032,0,0,0,3.035,3.8c1.5.715,3.7.072,4.016-1.555a4.07,4.07,0,0,0,4.3,2.182,4.07,4.07,0,0,0,3.206-3.608l28.307-30.957c-4.225-11.324-20.746-10.325-23.6-10.063" transform="translate(-7.97 525.499)"/><path class="n" d="M661.77-176.885a3.532,3.532,0,0,0-3.157,3.58l2,47.664c.075,5.63,10.289,12.285,16.316,12.159,6.086-.129,4.3-6.587,4.384-11.943.147-8.946.143-12.3.147-12.252,0,0,7.689-1.277,9.282-11.311.793-4.989.541-13.17.121-19.858-.379-6.02-4.367-13.406-10.366-12.77l-18.728,4.732" transform="translate(-8.242 525.273)"/><path class="f" d="M688.6-162.124a1.29,1.29,0,0,1-1.242,1.3,1.231,1.231,0,0,1-1.326-1.161,1.287,1.287,0,0,1,1.24-1.3,1.23,1.23,0,0,1,1.327,1.16" transform="translate(-8.585 525.043)"/><path class="f" d="M689.41-164.393c-.159.167-1.134-.554-2.519-.55-1.382-.016-2.4.7-2.549.528-.074-.076.088-.378.531-.7a3.539,3.539,0,0,1,2.042-.628,3.378,3.378,0,0,1,2,.646c.427.327.57.631.491.706" transform="translate(-8.564 525.074)"/><path class="f" d="M674.891-162.124a1.287,1.287,0,0,1-1.24,1.3,1.232,1.232,0,0,1-1.326-1.161,1.286,1.286,0,0,1,1.24-1.3,1.228,1.228,0,0,1,1.326,1.16" transform="translate(-8.414 525.043)"/><path class="f" d="M675.629-164.13c-.162.166-1.138-.554-2.52-.55-1.382-.017-2.4.7-2.55.527-.074-.076.087-.378.532-.7a3.522,3.522,0,0,1,2.041-.629,3.394,3.394,0,0,1,2.005.646c.425.327.57.631.492.707" transform="translate(-8.392 525.071)"/><path class="f" d="M680.773-153.862a9.151,9.151,0,0,1,2.249-.4c.354-.038.687-.107.748-.349a1.794,1.794,0,0,0-.236-1.048q-.5-1.284-1.045-2.693c-1.452-3.833-2.5-6.985-2.349-7.041s1.458,3,2.909,6.836c.35.945.685,1.846,1,2.71a2.024,2.024,0,0,1,.184,1.386.89.89,0,0,1-.582.517,2.3,2.3,0,0,1-.6.083,9,9,0,0,1-2.279,0" transform="translate(-8.511 525.07)"/><path class="o" d="M681.58-137.166a25.536,25.536,0,0,1-13.439-3.585s3.261,6.893,13.3,5.953l.136-2.367" transform="translate(-8.361 524.761)"/><path class="o" d="M680.137-150.348a2.5,2.5,0,0,0-2.238-.927,2.271,2.271,0,0,0-1.572.844,1.445,1.445,0,0,0-.111,1.651,1.679,1.679,0,0,0,1.816.46,5.251,5.251,0,0,0,1.77-1.057,1.541,1.541,0,0,0,.4-.409.463.463,0,0,0,0-.515" transform="translate(-8.46 524.893)"/><path class="f" d="M676.651-152.745c.225-.013.228,1.49,1.515,2.557s2.885.9,2.9,1.111c.02.093-.358.292-1.034.309a3.736,3.736,0,0,1-2.419-.841,3.257,3.257,0,0,1-1.174-2.143c-.058-.629.111-1,.213-.993" transform="translate(-8.465 524.912)"/><path class="k" d="M676.242-166.582c-.136.377-1.518.2-3.143.394-1.629.163-2.939.639-3.155.3-.1-.162.133-.516.662-.881a5.277,5.277,0,0,1,2.337-.819,5.281,5.281,0,0,1,2.461.29c.6.24.9.536.837.715" transform="translate(-8.384 525.098)"/><path class="k" d="M688.9-168.452c-.244.316-1.2-.012-2.345-.026-1.147-.055-2.118.211-2.341-.118-.1-.159.054-.474.479-.773a3.25,3.25,0,0,1,1.907-.515,3.248,3.248,0,0,1,1.87.632c.4.324.539.648.431.8" transform="translate(-8.562 525.126)"/><path class="n" d="M659.676-160.576a2.513,2.513,0,0,0-2.623.13,4.8,4.8,0,0,0-2.078,5.522,4.8,4.8,0,0,0,5.009,3.118" transform="translate(-8.194 525.013)"/><path class="f" d="M675.48-185a20.359,20.359,0,0,1,9.641,2.99A13.955,13.955,0,0,1,692-173.836a2.86,2.86,0,0,1-.08,2.261,2.212,2.212,0,0,1-2.752.592,6.448,6.448,0,0,1-2.24-2.063,4.421,4.421,0,0,1-4.2,3.219,4.422,4.422,0,0,1-4.129-3.313,3.759,3.759,0,0,1-3.867,3.45,4.955,4.955,0,0,1-4.27-3.371,12.6,12.6,0,0,1-1.766,4.9,4.283,4.283,0,0,1-4.542,1.85,8.891,8.891,0,0,1-.066,4.487c-.531,1.418-2.107,2.566-3.538,2.074-1.389-.477-1.929-2.122-2.255-3.556a33.582,33.582,0,0,1-1.074-8.411,13.639,13.639,0,0,1,2.583-7.953,13.591,13.591,0,0,1,7.355-4.533,32.573,32.573,0,0,1,8.732-.8" transform="translate(-8.225 525.315)"/><path class="o" d="M659-154.771c-.029-.07-.39.087-.876-.136a1.749,1.749,0,0,1-.86-1.716,1.768,1.768,0,0,1,1.07-1.608c.5-.207.872-.107.891-.183.036-.05-.34-.316-1-.169a1.846,1.846,0,0,0-.981.612,2.225,2.225,0,0,0-.5,1.321A1.993,1.993,0,0,0,658-154.56c.682.178,1.052-.169,1-.211" transform="translate(-8.219 524.985)"/><path class="f" d="M655.093-154.194a1.325,1.325,0,0,0-.412.112,7.109,7.109,0,0,0-1.119.5,8.372,8.372,0,0,0-3.268,3.088,6.3,6.3,0,0,0-.9,3.02,7.055,7.055,0,0,0,.835,3.525,8.358,8.358,0,0,0,2.67,2.977,7.405,7.405,0,0,0,4.087,1.315,7.771,7.771,0,0,0,6.778-4.236,6.626,6.626,0,0,0,.712-3.552,7.381,7.381,0,0,0-.968-3,7.164,7.164,0,0,0-3.321-3.018,4.836,4.836,0,0,0-1.173-.365,1.316,1.316,0,0,0-.428-.042c-.012.055.581.132,1.515.59a7.235,7.235,0,0,1,3.085,3.014,7.169,7.169,0,0,1,.86,2.852,6.241,6.241,0,0,1-.71,3.3,7.342,7.342,0,0,1-6.349,3.934,7.5,7.5,0,0,1-6.336-4,6.261,6.261,0,0,1-.042-6.14,8.582,8.582,0,0,1,3.049-3.091c.894-.544,1.448-.744,1.43-.79" transform="translate(-8.127 524.93)"/><path class="c" d="M663.4-185.806c-.108.022-.311-.874-.936-2.183a12.447,12.447,0,0,0-3.46-4.373,12.442,12.442,0,0,0-5.057-2.348c-1.419-.3-2.34-.291-2.342-.4a5,5,0,0,1,2.425-.074,11.167,11.167,0,0,1,5.4,2.286,11.179,11.179,0,0,1,3.481,4.719,5,5,0,0,1,.491,2.375" transform="translate(-8.155 525.444)"/><path class="c" d="M640.188-147.55c-.008.013-.169-.062-.355-.329a1.856,1.856,0,0,1-.237-1.371,2.866,2.866,0,0,1,1.235-1.821,25.346,25.346,0,0,1,2.49-1.371,3.038,3.038,0,0,0,1.734-2.482,14.4,14.4,0,0,0-.678-3.772,7.071,7.071,0,0,1-.211-2.208,3.764,3.764,0,0,1,.94-2.194,9.15,9.15,0,0,1,4.238-2.226,7.005,7.005,0,0,0,3.784-2.182,5.65,5.65,0,0,0,.629-3.966,20.335,20.335,0,0,1-.267-3.97,10.6,10.6,0,0,1,.835-3.4,10.582,10.582,0,0,1,2.969-4.029,7.136,7.136,0,0,1,1.113-.785c.272-.151.421-.221.433-.2.034.054-.525.392-1.369,1.185a11.119,11.119,0,0,0-2.7,4.014,10.414,10.414,0,0,0-.716,3.249,20.577,20.577,0,0,0,.328,3.86,6.213,6.213,0,0,1-.707,4.423,7.545,7.545,0,0,1-4.126,2.449,8.652,8.652,0,0,0-3.945,2.021,4.064,4.064,0,0,0-.614,3.821,14.188,14.188,0,0,1,.625,3.954,3.436,3.436,0,0,1-.7,1.781,4.426,4.426,0,0,1-1.36,1.074c-.956.507-1.846.8-2.508,1.261a2.612,2.612,0,0,0-1.194,1.562,1.892,1.892,0,0,0,.33,1.646" transform="translate(-8.004 525.301)"/><path class="c" d="M676.256-173.471c-.113.011-.2-1.06-.729-2.67a14.171,14.171,0,0,0-3.39-5.563,14.159,14.159,0,0,0-5.572-3.377c-1.612-.524-2.682-.608-2.672-.722a6.231,6.231,0,0,1,2.806.255,12.962,12.962,0,0,1,5.922,3.357,12.953,12.953,0,0,1,3.371,5.913,6.242,6.242,0,0,1,.265,2.806" transform="translate(-8.308 525.326)"/><path class="c" d="M684.342-177.887a23.414,23.414,0,0,0-1.743-3.1,13.834,13.834,0,0,0-6.876-4.786,21.3,21.3,0,0,0-8.491-.677c-2.2.232-3.548.544-3.575.435a12.065,12.065,0,0,1,3.513-.915,19.446,19.446,0,0,1,8.76.5,13.341,13.341,0,0,1,7.066,5.16,9.318,9.318,0,0,1,1.165,2.415,2.337,2.337,0,0,1,.18.966" transform="translate(-8.305 525.343)"/><path class="f" d="M666.735-188.236c.065.046-.25.664-1.026,1.461a9.81,9.81,0,0,1-3.652,2.3,9.809,9.809,0,0,1-4.286.531,3.341,3.341,0,0,1-1.72-.483c.025-.211,2.718.431,5.775-.693,3.077-1.064,4.757-3.265,4.908-3.116" transform="translate(-8.21 525.356)"/><path class="f" d="M673.838-1.041c-24.109-7.98-7.576-39.868-7.576-39.868L771.625-31a15.245,15.245,0,0,1,15.348,15.244A15.244,15.244,0,0,1,771.729-.512l-97.891-.529" transform="translate(-8.269 523.512)"/><path class="f" d="M648.864-1.072c-23.49-7.929-7.3-39.847-7.3-39.847l102.717,9.684c10.033.132,14.932,4.972,14.932,15.209-.017,8.418-3.13,15.514-14.9,15.274l-95.449-.32" transform="translate(-7.961 523.512)"/><path class="m" d="M673.172-35.46a1.178,1.178,0,0,1,.294-.012l.855.021,3.288.134,12.086.6,39.859,2.185c1.946.092,3.872.262,5.763.288s3.775.108,5.613.219,3.642.25,5.406.44a19.357,19.357,0,0,1,5.138,1.054,12.351,12.351,0,0,1,4.273,2.736,11.415,11.415,0,0,1,2.591,4.157,20.87,20.87,0,0,1,1.053,4.494,31.028,31.028,0,0,1,.283,4.249,18.076,18.076,0,0,1-1.356,7.154,11.75,11.75,0,0,1-3.194,4.352,8.637,8.637,0,0,1-2.908,1.643c-.727.229-.739.154-.033-.107a9.048,9.048,0,0,0,2.812-1.7,11.743,11.743,0,0,0,3.056-4.312A17.909,17.909,0,0,0,759.3-14.9a31.572,31.572,0,0,0-.312-4.187,20.671,20.671,0,0,0-1.06-4.386,10.952,10.952,0,0,0-2.5-3.971,11.949,11.949,0,0,0-4.122-2.612,19,19,0,0,0-5.02-1.006c-1.755-.182-3.552-.316-5.385-.424s-3.7-.182-5.592-.209-3.821-.192-5.769-.285l-39.862-2.349L677.6-35.1l-3.282-.239c-.35-.031-.631-.055-.852-.076a1.182,1.182,0,0,1-.291-.045" transform="translate(-8.424 523.444)"/><path class="g" d="M709.217-34.609l-8.449-4.146-5.88-19.6-.561-24.966,11.924-5.029-9.46-23.77c-1.727-3.511-5.206-12.814-14.17-15.88a10.956,10.956,0,0,1,.307-3.936c.708-1.167-21.833-1.867-23.112-1.4-1.189.434.2,4.583.061,5.281-8.01,2.208-15.808,5.506-18.725,16.53-1.136,4.3-.76,13.354-.143,17.722l6.263,33.091-3.516,10.858s-12.308,25.646-7.644,35.672S648.715-1.9,648.715-1.9l61.333-.121-.831-32.584" transform="translate(-7.947 524.67)"/><g transform="translate(639.722 448.826)"><g class="p"><path class="a" d="M647.829-40.2h35.218V-75.114H647.829Z" transform="translate(-647.829 75.114)"/></g></g><path class="f" d="M695.614-58.668a10.555,10.555,0,0,1-.163-1.774c-.061-1.24-.141-2.87-.237-4.837-.175-4.087-.377-9.733-.566-15.968s-.329-11.888-.4-15.976c-.024-1.971-.043-3.6-.057-4.845a10.658,10.658,0,0,1,.055-1.778,10.816,10.816,0,0,1,.163,1.769c.061,1.241.14,2.87.236,4.838.175,4.087.378,9.734.566,15.974s.329,11.887.4,15.977c.022,1.97.042,3.6.058,4.844a10.9,10.9,0,0,1-.057,1.777" transform="translate(-8.688 524.3)"/><path class="f" d="M672.239-82.258a2.34,2.34,0,0,1-.423.175l-1.3.474-5.062,1.783-18.509,6.388-.305.1-.059-.318c-1.259-6.732-2.731-14.606-4.322-23.117l0-.021v-.025c-.252-4.194-1.089-8.581-.728-13.189a12.1,12.1,0,0,1,.9-3.226,15.422,15.422,0,0,1,1.534-2.914,12.372,12.372,0,0,1,4.872-4.154,10.7,10.7,0,0,1,11.564,1.247,14.355,14.355,0,0,1,3.086,4.721,43.4,43.4,0,0,1,1.81,4.947c.976,3.241,1.716,6.312,2.45,9.118,1.406,5.542,2.55,10.046,3.359,13.227q.557,2.258.88,3.562c.087.371.158.672.215.918a1.225,1.225,0,0,1,.053.3,2.2,2.2,0,0,1-.115-.334c-.075-.251-.165-.562-.276-.944-.246-.874-.583-2.073-1.009-3.589-.862-3.147-2.084-7.6-3.588-13.082-.756-2.741-1.518-5.785-2.512-9.006a43.166,43.166,0,0,0-1.816-4.867,13.9,13.9,0,0,0-2.955-4.5,10.07,10.07,0,0,0-10.846-1.12,11.71,11.71,0,0,0-4.608,3.938,14.554,14.554,0,0,0-1.461,2.784,11.525,11.525,0,0,0-.853,3.047c-.349,4.441.466,8.827.718,13.081l-.005-.045c1.551,8.522,2.986,16.4,4.212,23.139l-.363-.213L665.2-80.03c2.19-.707,3.921-1.264,5.165-1.666l1.375-.428a3.169,3.169,0,0,1,.5-.134" transform="translate(-8.027 524.52)"/><path class="f" d="M653.913-75.623c-.179.058-.67-.964-1.093-2.28s-.62-2.433-.44-2.49.67.962,1.093,2.28.62,2.432.44,2.49" transform="translate(-8.163 524.006)"/><path class="f" d="M660.031-77.347c-.183.045-.584-.949-.9-2.22s-.415-2.337-.23-2.382.585.948.9,2.219.415,2.337.23,2.383" transform="translate(-8.245 524.026)"/><path class="f" d="M666.2-79.547c-.182.054-.585-.759-.9-1.815s-.425-1.955-.244-2.01.585.758.9,1.814.425,1.957.244,2.011" transform="translate(-8.322 524.043)"/><path class="f" d="M699.585-84.667c-.158.1-.849-.777-1.33-2.046s-.544-2.38-.362-2.413.542.964,1,2.17.854,2.192.687,2.29" transform="translate(-8.733 524.115)"/><path class="f" d="M704.227-87.289c-.17.084-.722-.671-1.235-1.688s-.791-1.913-.622-2,.722.672,1.234,1.69.79,1.912.623,2" transform="translate(-8.789 524.139)"/><path class="f" d="M663.708-127.062c.067.008.107.224.121.6l-.363,0a24.589,24.589,0,0,1-.423-3.131c-.171-2.058-.155-3.738.033-3.754s.481,1.639.652,3.7a24.987,24.987,0,0,1,.1,3.159l-.363-.005c.091-.364.175-.567.242-.561" transform="translate(-8.296 524.669)"/><path class="f" d="M669.26-127.054c-.188.014-.445-1.351-.571-3.049s-.078-3.089.112-3.1.444,1.352.571,3.052.076,3.086-.112,3.1" transform="translate(-8.367 524.667)"/><path class="f" d="M675.068-125.819c-.191,0-.366-1.648-.392-3.688s.1-3.693.294-3.7.363,1.647.391,3.687-.1,3.694-.292,3.7" transform="translate(-8.443 524.667)"/><path class="f" d="M679.823-126.585c-.188,0-.344-1.413-.344-3.153s.155-3.154.344-3.154.344,1.412.344,3.154-.154,3.153-.344,3.153" transform="translate(-8.503 524.663)"/><path class="f" d="M709.906-32.69c-.014.19-11.443-.437-25.527-1.4s-25.5-1.893-25.482-2.083,11.44.437,25.53,1.4,25.493,1.892,25.48,2.08" transform="translate(-8.246 523.453)"/><path class="n" d="M650.593-74.057l5.655,18.395A19.092,19.092,0,0,0,671-42.278l35.1,6.672,9.547-.311-3.246-8.153L679.716-57a7.107,7.107,0,0,1-5.323-5.121l-4.94-18.507-18.86,6.567" transform="translate(-8.142 524.009)"/><path class="m" d="M682.02-35.253l.3-2.275,26.97-1.06,13.234-33.373,50.417,3.421L755.927-31.491,682.02-35.253" transform="translate(-8.535 523.901)"/><path class="h" d="M743.066-50.09a2.642,2.642,0,0,1-3.647.818,2.643,2.643,0,0,1-.818-3.645,2.643,2.643,0,0,1,3.647-.819,2.642,2.642,0,0,1,.818,3.646" transform="translate(-9.238 523.678)"/><path class="f" d="M309.734-278.035c21.971-7.978,10.688-41.111,10.688-41.111L208.9-308.927a15.719,15.719,0,0,0-15.825,15.718A15.719,15.719,0,0,0,208.8-277.49l100.938-.545" transform="translate(-2.416 526.994)"/><path class="q" d="M165.652-184.818l-.226-11.059,21.211-7.535.877,15.4-1.193.577c-5.324,2.517-27.257,12.421-31.348,12.8-4.563.42,10.679-10.176,10.679-10.176" transform="translate(-1.929 525.546)"/><path class="h" d="M154.454-174.362a.421.421,0,0,1-.2-.034.362.362,0,0,1-.134-.454c-.032.266.15.417.606.417a2.352,2.352,0,0,0,.244-.013c.062-.005.129-.013.2-.024a3.581,3.581,0,0,1-.718.108m2.777-3.889c.5-.429.9-.752,1.04-.861-.357.29-.706.578-1.04.861m11.6-1.218c7.068-2.981,14.644-6.429,17.486-7.773l1.193-.577c-4.54,2.328-11.98,5.61-18.679,8.35" transform="translate(-1.928 525.35)"/><path class="g" d="M154.729-174.439c-.456,0-.637-.151-.606-.417.225-.827,1.939-2.4,3.107-3.4.334-.283.683-.571,1.04-.861l.051-.041a.91.91,0,0,1,.307-.051c1.124,0,2.474,1.884,2.474,1.884l26.2-10.927.211.428-1.193.577c-2.843,1.344-10.419,4.793-17.486,7.773a126.394,126.394,0,0,1-13.663,5c-.07.011-.137.018-.2.024a2.361,2.361,0,0,1-.244.013" transform="translate(-1.929 525.356)"/><path class="f" d="M187.608-188.393a2.031,2.031,0,0,1-.325.174c-.284.138-.6.287-.951.457l-3.525,1.616c-2.986,1.342-7.136,3.142-11.763,5.03s-8.853,3.5-11.926,4.633l-3.648,1.313-1,.338a1.954,1.954,0,0,1-.353.1,1.983,1.983,0,0,1,.336-.15l.981-.386,3.619-1.386c3.056-1.173,7.268-2.816,11.893-4.7s8.783-3.659,11.787-4.958l3.558-1.54.97-.411a2.093,2.093,0,0,1,.346-.128" transform="translate(-1.929 525.358)"/><path class="f" d="M161.284-176.909a8.809,8.809,0,0,0-1.368-1.439,8.72,8.72,0,0,0-1.783-.877,2.875,2.875,0,0,1,1.935.668,2.875,2.875,0,0,1,1.215,1.648" transform="translate(-1.979 525.243)"/><path class="f" d="M165.982-182.29c-.041.058-.458-.167-.931-.5s-.823-.656-.781-.715.458.169.931.5.822.657.781.715" transform="translate(-2.056 525.297)"/><path class="f" d="M167.253-183.8c-.025.066-.421-.014-.885-.182s-.822-.358-.8-.424.42.013.885.18.822.358.8.425" transform="translate(-2.072 525.308)"/><path class="f" d="M167.5-186.092c.029.066-.409.312-.976.55a2.51,2.51,0,0,1-1.077.312c-.028-.065.409-.312.977-.55a2.484,2.484,0,0,1,1.076-.312" transform="translate(-2.071 525.329)"/><path class="f" d="M167.31-187.565c.047.05-.363.481-1.012.8a2.149,2.149,0,0,1-1.251.324,6.883,6.883,0,0,1,1.136-.556,6.755,6.755,0,0,1,1.127-.57" transform="translate(-2.065 525.347)"/><path class="f" d="M164.562-183.753a3.972,3.972,0,0,1-1.272.508,7.954,7.954,0,0,1-1.472.251,3.916,3.916,0,0,1-.9,0,.736.736,0,0,1-.474-.266.541.541,0,0,1-.014-.585,2.515,2.515,0,0,1,3.155-.492,2.455,2.455,0,0,1,.758.679c.138.2.186.321.173.329a3.893,3.893,0,0,0-1.019-.847,2.462,2.462,0,0,0-1.371-.263,2.122,2.122,0,0,0-1.469.718c-.141.232.034.436.313.479a4.118,4.118,0,0,0,.836.014,9.42,9.42,0,0,0,1.444-.192c.815-.174,1.3-.37,1.315-.33" transform="translate(-2.007 525.311)"/><path class="f" d="M164.3-183.58a1.347,1.347,0,0,1-.506-.822,2.249,2.249,0,0,1-.03-1.066,1.378,1.378,0,0,1,.793-1.078.545.545,0,0,1,.629.428,1.476,1.476,0,0,1,.016.654,4.136,4.136,0,0,1-.287,1.011,1.965,1.965,0,0,1-.517.808c-.034-.021.161-.33.346-.874a4.672,4.672,0,0,0,.221-.977c.066-.34-.011-.869-.353-.8-.33.1-.525.546-.616.878a2.258,2.258,0,0,0-.024.97,4.942,4.942,0,0,0,.328.864" transform="translate(-2.049 525.335)"/><path class="f" d="M185.333-193.7c.013.046-.587.176-1.436.644a6.886,6.886,0,0,0-2.649,2.608,6.876,6.876,0,0,0-.845,3.619c.043.968.246,1.55.2,1.562a1.241,1.241,0,0,1-.162-.4,5.6,5.6,0,0,1-.219-1.152,6.591,6.591,0,0,1,.8-3.758,6.578,6.578,0,0,1,2.789-2.642,5.63,5.63,0,0,1,1.1-.415,1.21,1.21,0,0,1,.425-.068" transform="translate(-2.255 525.424)"/><path class="f" d="M179.939-201.173a37.693,37.693,0,0,1,1.821,3.985,36.919,36.919,0,0,1,1.584,4.086,37.387,37.387,0,0,1-1.822-3.985,37.068,37.068,0,0,1-1.583-4.086" transform="translate(-2.252 525.518)"/><path class="f" d="M177.241-185.954a12.14,12.14,0,0,1-2.766,1.459,12.056,12.056,0,0,1-2.981.944c-.021-.072,1.3-.519,2.882-1.184s2.829-1.285,2.865-1.219" transform="translate(-2.146 525.327)"/><path class="f" d="M181.226-187.557c.068.03.007.317,0,.666s.022.641-.047.665-.228-.271-.212-.674.2-.686.263-.657" transform="translate(-2.265 525.347)"/><path class="f" d="M181.952-189.994c.066.028.022.284-.1.575s-.271.5-.337.475-.022-.284.1-.574.271-.5.337-.477" transform="translate(-2.271 525.378)"/><path class="f" d="M183.716-191.695c.014.074-.25.178-.5.4s-.395.458-.465.436-.016-.365.3-.632.662-.271.666-.2" transform="translate(-2.287 525.399)"/><path class="f" d="M185.065-192.7c.05.053-.022.2-.161.33s-.29.194-.338.142.022-.2.161-.329.291-.195.338-.144" transform="translate(-2.31 525.412)"/><path class="f" d="M250.82-310.321l-62.279,1.165A20,20,0,0,0,169.066-291.6l-12.35,100.365H190.54l10.328-86.688h49.108l.844-32.4" transform="translate(-1.961 526.884)"/><path class="m" d="M157.142-196.193c0,.161,7.409.338,16.548.395s16.394-.173,16.554-.188c1.049-.1-7.407-.337-16.55-.395s-16.55.028-16.552.188" transform="translate(-1.967 525.458)"/><path class="m" d="M285.531-313.527a1.361,1.361,0,0,0-.312-.012c-.237.007-.537.013-.911.021l-3.5.137-12.875.6-42.463,2.205c-2.072.093-4.125.263-6.138.291s-4.022.109-5.98.221-3.88.251-5.76.444a21.6,21.6,0,0,0-5.472,1.063,13.292,13.292,0,0,0-4.552,2.762,11.439,11.439,0,0,0-2.76,4.2,20.191,20.191,0,0,0-1.124,4.535,29.838,29.838,0,0,0-.3,4.287,17.386,17.386,0,0,0,1.444,7.22,11.934,11.934,0,0,0,3.4,4.391,9.354,9.354,0,0,0,3.1,1.658c.774.232.787.155.036-.107a9.791,9.791,0,0,1-3-1.72,11.887,11.887,0,0,1-3.255-4.353,17.22,17.22,0,0,1-1.335-7.09,29.959,29.959,0,0,1,.333-4.225,19.773,19.773,0,0,1,1.128-4.425,10.971,10.971,0,0,1,2.666-4.009,12.8,12.8,0,0,1,4.391-2.635,21.191,21.191,0,0,1,5.348-1.016c1.868-.186,3.785-.317,5.737-.427s3.939-.184,5.956-.212,4.071-.195,6.149-.288l42.464-2.37,12.868-.783c1.488-.1,2.657-.183,3.5-.241l.908-.076a1.173,1.173,0,0,0,.308-.046" transform="translate(-2.42 526.924)"/><path class="r" d="M265.891-355.848l-5.411,16.958a19.59,19.59,0,0,1-15.212,13.627l-31.449,8.717-2.45-5.824-2.3-8.6,27.21-9.277a7.289,7.289,0,0,0,5.489-5.213L252.6-369.026l13.721,8.415-.432,4.764" transform="translate(-2.616 527.618)"/><path class="g" d="M279.542-409.43c-11.519,1.346-15.23,6.032-19.935,12.839a38.71,38.71,0,0,0-4.656,9.126l-8.724,24.725,18.209,5.614-.608,20.193-8.292,24.578,69.955,5.5-.2-35.715-.5-21.553c.66-8.162,2.361-25.474.906-29.576-6.224-17.546-19.956-14.178-30.033-16.679-2.078-.515-12.13-.411-13.875.02l-2.244.928" transform="translate(-3.081 528.14)"/><path class="l" d="M325.715-344c0,.19-13.684.344-30.559.344s-30.563-.154-30.563-.344,13.681-.342,30.563-.342,30.559.153,30.559.342" transform="translate(-3.311 527.309)"/><path class="l" d="M324.681-331.63c0,.188-13.684.342-30.559.342s-30.563-.154-30.563-.342,13.681-.344,30.563-.344,30.559.154,30.559.344" transform="translate(-3.298 527.154)"/><path class="l" d="M324.964-317.442c0,.19-14.47.344-32.316.344s-32.321-.154-32.321-.344,14.469-.342,32.321-.342,32.316.153,32.316.342" transform="translate(-3.258 526.977)"/><path class="s" d="M266.005-314.02c-.215,0-.409-.007-.582-.02l7.558-3.579c3.983.033,8.706.057,13.854.066-7.7,1.706-17.2,3.533-20.829,3.533m8.142-4.15,28.3-13.4c3.136-.009,6.071-.025,8.712-.045a23.579,23.579,0,0,1-2.225,3.6,23.564,23.564,0,0,1-11.859,7.949c-1.293.4-3.963,1.077-7.243,1.838-5.806.005-11.169.026-15.685.061m37.293-14.013c-2.324-.018-4.881-.033-7.609-.043l2.223-1.052L308.6-343.8c2.392-.013,4.61-.029,6.6-.049a39.2,39.2,0,0,1-1.589,6.316,54.558,54.558,0,0,1-2.174,5.355m3.854-12.188c-1.972-.018-4.17-.036-6.542-.049l2.2-9.076,5.588,1.573c-.475,2.461-.807,5.022-1.244,7.551" transform="translate(-3.322 527.424)"/><path class="t" d="M309.15-343.69l.149-.615c2.373.013,4.57.03,6.542.049l-.091.517c-1.991.02-4.208.036-6.6.049" transform="translate(-3.869 527.309)"/><path class="t" d="M302.917-331.3l1.384-.656c2.728.011,5.285.025,7.609.043q-.138.284-.28.567c-2.641.02-5.576.036-8.712.045" transform="translate(-3.791 527.154)"/><path class="t" d="M286.93-317.105c-5.148-.009-9.871-.033-13.854-.066l1.167-.552c4.516-.034,9.879-.055,15.685-.061-.955.22-1.959.449-3,.678" transform="translate(-3.417 526.977)"/><path class="r" d="M313.962-352.664l-4.469,17.2a19.677,19.677,0,0,1-14.611,14.434l-35.871,8.412-9.85.1v-13.54l36.1-9.752a7.327,7.327,0,0,0,5.26-5.506L294-356.445l19.964,3.78" transform="translate(-3.118 527.461)"/><path class="l" d="M326-394.527c0,.188-15.082.342-33.681.342s-33.685-.154-33.685-.342,15.078-.342,33.685-.342,33.681.153,33.681.342" transform="translate(-3.237 527.942)"/><path class="l" d="M326.36-382.726c0,.191-16.254.344-36.3.344s-36.3-.153-36.3-.344,16.251-.342,36.3-.342,36.3.154,36.3.342" transform="translate(-3.176 527.794)"/><path class="l" d="M325.356-369.961c0,.19-17.11.477-38.216.643s-38.221.146-38.222-.043,17.106-.477,38.217-.643,38.218-.146,38.221.043" transform="translate(-3.115 527.632)"/><path class="l" d="M325.009-356.449c0,.191-13.684.344-30.559.344s-30.563-.153-30.563-.344,13.681-.342,30.563-.342,30.559.154,30.559.342" transform="translate(-3.302 527.465)"/><path class="f" d="M320.637-351.824a1.087,1.087,0,0,1,.021-.286c.03-.221.068-.494.116-.828q.18-1.167.492-3.2c.431-2.785,1.06-6.831,1.758-11.9.679-5.066,1.5-11.157,1.907-18.029.137-3.4.421-7.172-1.351-10.5a11.275,11.275,0,0,0-3.7-4.187,13.181,13.181,0,0,0-5.418-2.1l-.043-.007-.033-.009a11.129,11.129,0,0,0-6.656.449,18.905,18.905,0,0,0-6.172,3.353,5.158,5.158,0,0,0-.94,1.056,13.635,13.635,0,0,0-.7,1.3,19.168,19.168,0,0,0-1.013,2.762,55,55,0,0,0-1.218,5.73c-.681,3.812-1.343,7.517-1.982,11.086-1.284,7.132-2.471,13.725-3.521,19.552l-.2-.308,20.25,4.337,5.572,1.236,1.454.342a2.536,2.536,0,0,1,.491.145,2.447,2.447,0,0,1-.508-.063c-.374-.068-.86-.157-1.469-.266-1.339-.261-3.22-.628-5.606-1.092l-20.326-4.113-.242-.049.045-.259c1.02-5.837,2.174-12.438,3.422-19.582.629-3.573,1.284-7.282,1.955-11.1a54.97,54.97,0,0,1,1.224-5.785A19.481,19.481,0,0,1,299.3-397a14.508,14.508,0,0,1,.732-1.365,5.835,5.835,0,0,1,1.068-1.21,19.457,19.457,0,0,1,6.416-3.489,11.744,11.744,0,0,1,7.085-.438l-.075-.016a13.8,13.8,0,0,1,5.725,2.224,11.925,11.925,0,0,1,3.9,4.441,14.468,14.468,0,0,1,1.019,2.7,17.036,17.036,0,0,1,.415,2.774q.036.691.074,1.375-.014.677-.026,1.344c-.011.891-.058,1.768-.113,2.631-.445,6.908-1.321,12.993-2.059,18.059-.758,5.064-1.454,9.1-1.958,11.875q-.385,2.018-.606,3.178c-.071.331-.129.6-.176.818a1.025,1.025,0,0,1-.08.275" transform="translate(-3.649 528.054)"/><path class="f" d="M264.455-336.9a11.25,11.25,0,0,0,.091-1.833c.008-1.281.018-2.964.03-5,0-4.219-.037-10.042-.116-16.475s-.183-12.261-.287-16.476c-.063-2.032-.115-3.713-.154-4.993a11.119,11.119,0,0,0-.136-1.831,10.852,10.852,0,0,0-.091,1.831c-.008,1.28-.018,2.961-.032,4.994,0,4.216.038,10.043.117,16.48s.183,12.261.287,16.476c.062,2.03.115,3.713.154,4.993a10.875,10.875,0,0,0,.136,1.829" transform="translate(-3.301 527.799)"/><path class="m" d="M285.512-309.505l.628-2.932-27.168-2.889-11.848-34.047-55.325-.381,18.126,39.473,75.587.775" transform="translate(-2.4 527.377)"/><path class="h" d="M227.644-327.768a2.724,2.724,0,0,0,.843-3.759,2.723,2.723,0,0,0-3.759-.844,2.724,2.724,0,0,0-.844,3.76,2.725,2.725,0,0,0,3.76.843" transform="translate(-2.796 527.165)"/><path class="f" d="M265.742-466.151a7.534,7.534,0,0,0-6.068,5.858,7.536,7.536,0,0,0,3.451,7.7,3.956,3.956,0,0,0,3.7.431,4.566,4.566,0,0,0,2.005-2.894,15.571,15.571,0,0,0-.882-11.317" transform="translate(-3.248 528.836)"/><path class="r" d="M288.659-398.911h0a11.8,11.8,0,0,1-11.8-11.939c.045-4.1.113-7.65.113-7.65s-9.485-.881-10.182-10.268-.4-31.058-.4-31.058a32.708,32.708,0,0,1,33.061,2.1l1.459.986-.45,46.144a11.8,11.8,0,0,1-11.8,11.687" transform="translate(-3.333 528.798)"/><path class="u" d="M277.082-418.122a21.891,21.891,0,0,0,12.031-4.237s-2.478,6.94-11.9,6.671l-.128-2.434" transform="translate(-3.468 528.286)"/><path class="r" d="M298.869-446.148c.174-.066,5.945-.816,5.4,6s-7.245,4.009-7.242,3.813,1.842-9.81,1.842-9.81" transform="translate(-3.717 528.584)"/><path class="u" d="M299.334-438.531c.032-.02.112.092.305.2a1.187,1.187,0,0,0,.886.09,2.948,2.948,0,0,0,1.569-2.525,3.93,3.93,0,0,0-.2-1.726,1.373,1.373,0,0,0-.82-.982.606.606,0,0,0-.727.269c-.107.183-.074.323-.111.332-.021.016-.137-.126-.061-.4a.765.765,0,0,1,.3-.4.9.9,0,0,1,.67-.121,1.673,1.673,0,0,1,1.155,1.155,4.04,4.04,0,0,1,.261,1.933,3.1,3.1,0,0,1-1.967,2.8,1.283,1.283,0,0,1-1.072-.267c-.2-.186-.221-.341-.2-.352" transform="translate(-3.746 528.554)"/><path class="f" d="M272.824-456.109a28,28,0,0,0,4.427-3.2,7.284,7.284,0,0,0,5.2,3.3,7.279,7.279,0,0,0,5.842-1.949,3.675,3.675,0,0,0,1.851,2.969,3.673,3.673,0,0,0,3.5,0q.069,5.435.138,10.869a5,5,0,0,0,.683,3c.631.832,2.09,1.089,2.669.22a7.6,7.6,0,0,1,.371-3.933c.577-1.2,2.086-2.063,3.276-1.464a26.7,26.7,0,0,0,.383-6.429,5.93,5.93,0,0,1,.269-1.967c.371-.6.542-.134,1.231-.278a4.89,4.89,0,0,0,3.668-4.384,6.153,6.153,0,0,0-2.591-5.272,8.359,8.359,0,0,0-5.83-1.4,3.7,3.7,0,0,0,.043-4.949A6.016,6.016,0,0,0,293-472.792c-1.825.109-3.876,1.124-4.1,2.936a7.766,7.766,0,0,0-7.239-6.519,7.762,7.762,0,0,0-7.588,6.107c-2.186-.969-5.245-2.042-7.419-1.049a7.147,7.147,0,0,0-4.516,6.249s-.552,7.452,4.166,8.958,6.524,0,6.524,0" transform="translate(-3.28 528.962)"/><path class="f" d="M268.9-444.581a1.315,1.315,0,0,0,1.269,1.329,1.259,1.259,0,0,0,1.357-1.188,1.316,1.316,0,0,0-1.268-1.328,1.26,1.26,0,0,0-1.359,1.188" transform="translate(-3.365 528.579)"/><path class="f" d="M268.61-446.082c.163.171,1.16-.566,2.578-.564,1.415-.016,2.454.712,2.608.539.076-.075-.091-.386-.544-.715a3.612,3.612,0,0,0-2.088-.645,3.475,3.475,0,0,0-2.053.664c-.436.334-.582.645-.5.721" transform="translate(-3.361 528.6)"/><path class="f" d="M282.953-444.243a1.319,1.319,0,0,0,1.271,1.329,1.26,1.26,0,0,0,1.358-1.186,1.316,1.316,0,0,0-1.268-1.33,1.261,1.261,0,0,0-1.36,1.188" transform="translate(-3.541 528.574)"/><path class="f" d="M282.714-445.814c.165.171,1.163-.567,2.579-.564,1.414-.017,2.454.714,2.608.539.075-.076-.089-.386-.544-.716a3.618,3.618,0,0,0-2.088-.644,3.468,3.468,0,0,0-2.051.664c-.436.333-.583.644-.5.721" transform="translate(-3.538 528.596)"/><path class="f" d="M277.46-435.3a9.343,9.343,0,0,0-2.3-.415c-.361-.038-.7-.109-.765-.357a1.844,1.844,0,0,1,.242-1.073q.51-1.313,1.069-2.754c1.486-3.922,2.562-7.148,2.4-7.207s-1.492,3.074-2.978,7c-.357.968-.7,1.889-1.024,2.773a2.093,2.093,0,0,0-.188,1.419.907.907,0,0,0,.6.528,2.318,2.318,0,0,0,.615.086,9.225,9.225,0,0,0,2.332,0" transform="translate(-3.427 528.595)"/><path class="f" d="M281.673-434.163c-.23-.013-.233,1.526-1.55,2.617s-2.953.922-2.966,1.138c-.021.1.366.3,1.057.317a3.827,3.827,0,0,0,2.475-.864,3.327,3.327,0,0,0,1.2-2.194c.059-.643-.112-1.023-.217-1.015" transform="translate(-3.468 528.433)"/><path class="f" d="M282.343-451.434c.141.386,1.555.2,3.218.4,1.667.167,3.007.654,3.227.308.1-.166-.134-.528-.677-.9a5.38,5.38,0,0,0-2.392-.837,5.372,5.372,0,0,0-2.517.3c-.611.245-.918.548-.858.731" transform="translate(-3.533 528.663)"/><path class="f" d="M269.136-450.236c.25.321,1.226-.012,2.4-.028,1.173-.058,2.169.216,2.4-.121.1-.163-.057-.485-.491-.79a3.32,3.32,0,0,0-1.95-.527,3.3,3.3,0,0,0-1.913.646c-.416.33-.552.662-.442.819" transform="translate(-3.368 528.653)"/><path class="m" d="M271.783-466.657c-.017.025-.129-.062-.365-.112a1.271,1.271,0,0,0-.977.255,1.306,1.306,0,0,0-.434,1.429,2.306,2.306,0,0,0,1.4,1.533,3.019,3.019,0,0,0,2.537-.15,3.167,3.167,0,0,0,1.525-2.446,3.5,3.5,0,0,0-1.184-2.972,4.166,4.166,0,0,0-3.328-1.061,5.354,5.354,0,0,0-3.214,1.6,6.128,6.128,0,0,0-1.552,3.023,8.2,8.2,0,0,0,.962,5.727,9.526,9.526,0,0,0,2.687,3c.787.56,1.282.785,1.259.837a3.861,3.861,0,0,1-1.406-.615,8.971,8.971,0,0,1-2.957-2.974,8.544,8.544,0,0,1-1.164-6.1,6.7,6.7,0,0,1,1.687-3.364,5.984,5.984,0,0,1,3.623-1.814,4.818,4.818,0,0,1,3.859,1.249,4.126,4.126,0,0,1,1.355,3.537,3.728,3.728,0,0,1-1.883,2.876,3.5,3.5,0,0,1-3,.095A2.7,2.7,0,0,1,269.633-465a1.6,1.6,0,0,1,.657-1.733,1.35,1.35,0,0,1,1.165-.169c.259.1.341.234.328.245" transform="translate(-3.322 528.893)"/><path class="k" d="M48.159-26.236c.883-3.5-1.43-7-4.015-9.524s-5.67-4.778-7.027-8.125c-2.2-5.422.676-12.475-3.047-16.989-2.189-2.654-6.095-3.526-8.04-6.365a14.567,14.567,0,0,1-1.767-5.082,51.728,51.728,0,0,0-13-24,44.884,44.884,0,0,0,5.179,23.171c1.513,2.843,3.368,5.612,3.881,8.791.835,5.161-2.018,10.5-.72,15.565,1.485,5.794,8.023,9.639,8.366,15.611.29,5.048-4.086,9.5-3.729,14.549a13.639,13.639,0,0,0,2.281,5.975c3.942,6.467,9.7,10.9,18.394,10.711l10.649.312-7.4-24.6" transform="translate(-0.14 524.205)"/><path class="g" d="M55.563-1.635,44.913-1.947c-.184,0-.365.007-.546.007-8.388,0-13.989-4.386-17.848-10.718a13.639,13.639,0,0,1-2.281-5.975c-.014-.2-.021-.392-.021-.588,0-4.648,3.771-8.828,3.764-13.488,0-.157,0-.315-.014-.473C27.625-39.153,21.087-43,19.6-48.792a11.722,11.722,0,0,1-.344-2.936c0-3.492,1.223-7.072,1.22-10.6a12.8,12.8,0,0,0-.156-2.034c-.513-3.179-2.368-5.948-3.881-8.791a44.923,44.923,0,0,1-5.233-21.014c0-.718.018-1.439.053-2.157a51.728,51.728,0,0,1,13,24,14.567,14.567,0,0,0,1.767,5.082c1.946,2.839,5.851,3.71,8.04,6.365,2.022,2.45,2.1,5.65,2.1,8.931,0,.272,0,.544,0,.815a19.253,19.253,0,0,0,.949,7.243c1.357,3.347,4.443,5.6,7.027,8.125,2.2,2.149,4.2,5,4.206,7.967a6.346,6.346,0,0,1-.191,1.556h0l7.4,24.6" transform="translate(-0.14 524.205)"/><path class="f" d="M58.24-1.837a8.518,8.518,0,0,0,2.932-.079,17.846,17.846,0,0,0,3.455-.892,14.626,14.626,0,0,0,4.26-2.364,5.955,5.955,0,0,0,1.744-2.353,11.023,11.023,0,0,0,.483-3.184,30.824,30.824,0,0,1,.229-3.446,9.491,9.491,0,0,1,1.282-3.431C73.868-19.8,75.94-21.9,76.6-24.895c.712-2.95.171-6.133-.342-9.331s-1.011-6.67.192-10c1.123-3.336,3.441-6.356,4.587-10.116,1.141-3.8.576-7.874.8-11.9a15.812,15.812,0,0,1,1.354-5.92c.851-1.888,2.036-3.673,2.957-5.662,1.868-4.022,2.175-8.57,2.667-13.028q.359-3.369.725-6.808a33.346,33.346,0,0,1,1.144-6.816,60.173,60.173,0,0,1,2.51-6.6A21.912,21.912,0,0,0,94.4-114.53a34.636,34.636,0,0,0,.323-3.665,43.169,43.169,0,0,0-.325-7.368c-.3-2.455-.76-4.889-1.039-7.35-.017-.146-.034-.291-.05-.425l-.058-.49-.435.221a16.444,16.444,0,0,0-5.7,4.87,26.059,26.059,0,0,0-3.484,6.509c-1.753,4.584-2.366,9.383-3.237,13.961-.849,4.58-1.978,9.087-4.3,12.9-1.156,1.9-2.558,3.642-3.783,5.5A15.046,15.046,0,0,0,69.7-83.781c-.6,4.507,1.9,8.449,1.406,12.44A13.805,13.805,0,0,1,69.2-65.8c-.957,1.707-2.084,3.292-3.153,4.883a31.211,31.211,0,0,0-2.831,4.93,15.572,15.572,0,0,0-1.278,5.344c-.24,3.593.29,7,.045,10.213A23.483,23.483,0,0,1,59.4-31.669c-1.273,2.627-2.692,5-3.879,7.307a37.467,37.467,0,0,0-1.595,3.4,16.637,16.637,0,0,0-.915,3.372,21.256,21.256,0,0,0-.045,6.078A15.315,15.315,0,0,0,56.06-3.777a7.28,7.28,0,0,0,.867.928,4.255,4.255,0,0,0,.7.59c.4.29.611.423.611.423a13.41,13.41,0,0,1-2.073-2.027,15.411,15.411,0,0,1-2.934-7.681,21.089,21.089,0,0,1,.1-5.988,16.431,16.431,0,0,1,.922-3.293c.447-1.1,1-2.22,1.606-3.357,1.2-2.284,2.631-4.65,3.931-7.294A23.906,23.906,0,0,0,62.463-40.4c.262-3.285-.252-6.7,0-10.209a15.025,15.025,0,0,1,1.254-5.164,30.794,30.794,0,0,1,2.8-4.831c1.068-1.583,2.209-3.172,3.193-4.914a14.4,14.4,0,0,0,2-5.764c.489-4.25-2-8.219-1.38-12.41a14.443,14.443,0,0,1,2.52-5.818c1.206-1.822,2.615-3.563,3.805-5.514,2.4-3.925,3.544-8.52,4.4-13.118.88-4.608,1.494-9.354,3.216-13.844a25.42,25.42,0,0,1,3.393-6.339,15.782,15.782,0,0,1,5.464-4.669l-.492-.268c.016.135.033.281.05.428.282,2.491.74,4.928,1.04,7.356a42.573,42.573,0,0,1,.323,7.256,34.519,34.519,0,0,1-.307,3.554,21.476,21.476,0,0,1-1.176,3.327,60.218,60.218,0,0,0-2.529,6.677,33.882,33.882,0,0,0-1.16,6.929q-.361,3.438-.716,6.811c-.483,4.478-.792,8.952-2.59,12.835-.889,1.933-2.071,3.723-2.947,5.673a16.393,16.393,0,0,0-1.393,6.139c-.208,4.109.349,8.124-.742,11.771C79.406-50.879,77.1-47.843,75.946-44.4c-1.237,3.479-.7,7.071-.17,10.252.532,3.2,1.067,6.32.4,9.156-.6,2.862-2.612,4.943-3.88,7.218a9.855,9.855,0,0,0-1.3,3.568,30.768,30.768,0,0,0-.2,3.487,10.793,10.793,0,0,1-.437,3.1,5.694,5.694,0,0,1-1.64,2.25A14.607,14.607,0,0,1,64.556-3a18.518,18.518,0,0,1-3.406.944,13.492,13.492,0,0,1-2.165.221c-.49-.014-.745-.005-.745-.005" transform="translate(-0.66 524.675)"/><path class="f" d="M91.24-127.382a1.286,1.286,0,0,0-.1.322l-.229.961c-.2.84-.447,2.108-.839,3.692-.41,1.578-1.365,3.368-2.179,5.572-.846,2.187-1.7,4.721-2.488,7.567s-1.5,6-2.231,9.384a39.425,39.425,0,0,1-3.349,10.418c-.863,1.735-1.836,3.492-2.6,5.411a25.134,25.134,0,0,0-1.5,6.119A123.686,123.686,0,0,1,73.5-65.043c-2.086,8.737-4.072,17.06-5.881,24.637L62.684-20.312c-1.37,5.684-2.483,10.3-3.267,13.56l-.855,3.7-.2.966a1.232,1.232,0,0,0-.048.333,1.242,1.242,0,0,0,.115-.317c.072-.251.162-.564.271-.948l.98-3.666c.835-3.245,2.02-7.846,3.478-13.507,1.448-5.727,3.167-12.52,5.074-20.059,1.826-7.58,3.832-15.9,5.937-24.645a121.821,121.821,0,0,0,2.218-12.946,24.515,24.515,0,0,1,1.442-5.971c.742-1.87,1.7-3.617,2.562-5.371a39.676,39.676,0,0,0,3.339-10.578c.71-3.39,1.381-6.539,2.143-9.376s1.571-5.37,2.379-7.559c.771-2.2,1.7-4.008,2.078-5.641.36-1.622.555-2.877.718-3.733.065-.393.119-.713.163-.973a1.28,1.28,0,0,0,.033-.337" transform="translate(-0.73 524.594)"/><path class="v" d="M59.715-2.237c6.93-4.174,8.855-16.732,5.911-24.268s-8.061-14.408-8.889-22.455c-.637-6.187,1.354-12.552-.122-18.592-1.992-8.155-10-14.433-9.956-22.827.025-4.71,2.679-9.154,2.439-13.86-.295-5.768-4.75-10.321-7.522-15.389-4.243-7.757-4.572-16.954-6.058-25.671S30.657-163.34,22.9-167.584c-1.1,7.413-3.02,12.5-2.351,22.526.24,3.6,4.465,10.478,5.08,18.372.367,4.719.63,9.444.945,14.167.307,4.595.631,9.274,2.3,13.565,1.281,3.289,3.327,6.273,4.284,9.67,1.8,6.39-.478,13.338.983,19.814,1.238,5.488,5.067,10.2,5.876,15.762,1.136,7.824-3.885,15.985-1.248,23.438,1.308,3.7,4.373,6.656,5.259,10.477.688,2.965-.026,6.112.6,9.09,1.007,4.8,10.192,8.479,15.084,8.154" transform="translate(-0.255 525.097)"/><path class="f" d="M24.916-160.149a1.87,1.87,0,0,0,.032.419c.042.311.1.711.164,1.215.166,1.069.354,2.639.727,4.667.4,2.041,1.466,4.333,2.323,7.1.9,2.76,1.8,5.943,2.6,9.509s1.5,7.509,2.222,11.755c.744,4.215,1.507,8.874,3.64,13.286.989,2.219,2.1,4.437,2.93,6.8a30.63,30.63,0,0,1,1.51,7.506A151.7,151.7,0,0,0,43.2-81.7c2.192,10.962,4.28,21.4,6.181,30.908,2,9.467,3.8,17.994,5.32,25.174,1.531,7.127,2.773,12.91,3.644,16.959l1.024,4.6c.118.5.211.889.284,1.193a1.921,1.921,0,0,0,.119.4,1.861,1.861,0,0,0-.051-.416c-.055-.31-.127-.707-.217-1.209-.214-1.1-.516-2.653-.9-4.629-.819-4.061-1.989-9.858-3.431-17L50-50.918c-1.883-9.5-3.952-19.939-6.124-30.9a153.326,153.326,0,0,1-2.139-16.137,31.164,31.164,0,0,0-1.56-7.657c-.86-2.416-1.983-4.644-2.971-6.842-2.121-4.349-2.883-8.9-3.657-13.127-.745-4.24-1.461-8.2-2.309-11.766s-1.772-6.764-2.714-9.522c-.9-2.777-2-5.051-2.425-7.039-.408-1.991-.643-3.576-.851-4.632-.1-.5-.172-.9-.23-1.2a1.949,1.949,0,0,0-.1-.407" transform="translate(-0.312 525.004)"/><path class="k" d="M817.618-35.83c-1.6,2.291-4.723,1.533-6.169.134s-2.058-3.427-2.614-5.361c-1.271-4.416-2.553-9.052-1.608-13.55a7.55,7.55,0,0,1,1.73-3.685,3.934,3.934,0,0,1,3.727-1.239c1.574.416,2.55,1.955,3.256,3.421a32.311,32.311,0,0,1,3.193,13.861,11.2,11.2,0,0,1-1.517,6.419" transform="translate(-10.098 523.746)"/><path class="g" d="M814.762-34.37A4.988,4.988,0,0,1,811.45-35.7c-1.447-1.4-2.058-3.427-2.614-5.361A37.9,37.9,0,0,1,806.9-51.319a15.848,15.848,0,0,1,.327-3.287,7.55,7.55,0,0,1,1.73-3.685,4.172,4.172,0,0,1,2.932-1.34,3.072,3.072,0,0,1,.8.1c1.574.416,2.55,1.955,3.256,3.421a32.311,32.311,0,0,1,3.193,13.861v.105a11.092,11.092,0,0,1-1.517,6.313,3.358,3.358,0,0,1-2.856,1.46" transform="translate(-10.098 523.746)"/><path class="g" d="M811.491-23.792a13.9,13.9,0,0,0-8.628-1.047,7.154,7.154,0,0,0-4.261,1.9c-1.067,1.175-1.268,3.244-.045,4.254a4.075,4.075,0,0,0,2.687.683c2.28-.027,4.811-.428,6.633.945,1.04.781,1.731,2.084,2.976,2.469a2.938,2.938,0,0,0,3.232-1.439,5.016,5.016,0,0,0,.365-3.707,5.659,5.659,0,0,0-2.96-4.061" transform="translate(-9.983 523.314)"/><path class="g" d="M822.2-32.448a8.335,8.335,0,0,1-1.3-7.674,14.789,14.789,0,0,1,4.545-6.594,24.462,24.462,0,0,1,8.141-4.8,8.664,8.664,0,0,1,3.66-.623,3.844,3.844,0,0,1,3.072,1.859c.856,1.633.034,3.614-.854,5.232a61.866,61.866,0,0,1-5.346,8.139c-1.6,2.068-3.438,4.105-5.88,5.039s-4.978.823-6.272-.871" transform="translate(-10.268 523.653)"/><path class="f" d="M817.713-.784a5.055,5.055,0,0,1-.145-1.041c-.074-.757-.166-1.711-.276-2.842a40.868,40.868,0,0,0-.639-4.17,32.183,32.183,0,0,0-1.517-4.92,18.147,18.147,0,0,0-2.512-4.453,9.391,9.391,0,0,0-3.176-2.64,8.848,8.848,0,0,0-2.675-.832,4.871,4.871,0,0,1-1.036-.151,4.981,4.981,0,0,1,1.055-.016,8.082,8.082,0,0,1,2.79.727,9.36,9.36,0,0,1,3.351,2.663,17.7,17.7,0,0,1,2.6,4.542,30.1,30.1,0,0,1,1.5,5,35.145,35.145,0,0,1,.554,4.221c.091,1.208.124,2.184.141,2.86a4.724,4.724,0,0,1-.022,1.052" transform="translate(-10.083 523.274)"/><path class="f" d="M817.6-3.327a2.073,2.073,0,0,1-.026-.485c0-.362,0-.82,0-1.381,0-1.2,0-2.935-.061-5.078-.107-4.286-.477-10.2-1.189-16.7s-1.67-12.356-2.537-16.555c-.205-1.052-.411-2-.6-2.828s-.345-1.548-.5-2.128c-.133-.545-.24-.99-.325-1.343a2.029,2.029,0,0,1-.083-.477,2.055,2.055,0,0,1,.167.453l.4,1.324c.178.574.359,1.285.567,2.113s.445,1.771.67,2.822a156.084,156.084,0,0,1,2.666,16.571c.715,6.517,1.038,12.451,1.065,16.747.026,2.149-.021,3.887-.075,5.089-.034.56-.062,1.018-.084,1.38a2.013,2.013,0,0,1-.059.481" transform="translate(-10.165 523.63)"/><path class="f" d="M817.638-14.728a9.09,9.09,0,0,1,.009-1.442c.053-.928.182-2.27.442-3.911a51.382,51.382,0,0,1,1.272-5.7,50.571,50.571,0,0,1,2.383-6.742,35.925,35.925,0,0,1,7-10.9,17.741,17.741,0,0,1,1.647-1.53c.253-.213.475-.426.7-.6l.64-.44a9.627,9.627,0,0,1,1.215-.779,42.935,42.935,0,0,0-3.984,3.553,37.907,37.907,0,0,0-6.823,10.858,53.84,53.84,0,0,0-2.4,6.679,58.014,58.014,0,0,0-1.352,5.642c-.3,1.625-.471,2.952-.575,3.871a9.4,9.4,0,0,1-.176,1.43" transform="translate(-10.232 523.585)"/></svg>