<svg xmlns="http://www.w3.org/2000/svg" width="737" height="412.653" viewBox="0 0 737 412.653"><defs><style>.a{fill:#abc4df;}.b{fill:#97b9d5;}.c{fill:#fefefe;}.d{fill:#e04b6d;}.e{fill:#ef5981;}.f{fill:#d7446b;}.g{fill:#ca3b54;}.h{fill:#d34261;}.i{fill:#e64a6d;}.j{fill:#c1cada;}.k{fill:#444e7c;}.l{fill:#455d8d;}.m{fill:#45669b;}.n{fill:#c1e6f1;}.o{fill:#c0d2ec;}.p{fill:#424672;}.q{fill:#403f69;}.r{fill:#3a3756;}.s{fill:#444d7b;}.t{fill:#46507e;}.u{fill:#424876;}.v{fill:#466396;}.w{fill:#4277aa;}.x{fill:#f38291;}.y{fill:#f4939d;}.z{fill:#df4669;}.aa{fill:#457caa;}.ab{fill:#4773a4;}.ac{fill:#e24669;}.ad{fill:#5a90b9;}.ae{fill:#42468a;}.af{fill:#e04d76;}</style></defs><g transform="translate(0 -44.942)"><path class="a" d="M0,5138.418H737V5042H0Z" transform="translate(0 -4680.823)"/><path class="b" d="M2205,5403.784l148.772-46.4L2491.989,5343l171.868.992-97.623,61.634Z" transform="translate(-2048.789 -4960.499)"/><path class="c" d="M3888.817,879.793H3884V877.03h4.817V872h2.9v5.03h4.747v2.763h-4.747v5.03h-2.9Z" transform="translate(-3608.842 -806.243)"/><path class="c" d="M5842.747,852.793H5838v-2.834h4.747V845h2.976v4.959h4.747v2.834h-4.747v4.959h-2.976Z" transform="translate(-5424.413 -781.156)"/><path class="c" d="M1003.747,1295.793H999v-2.763h4.747V1288h2.9v5.03h4.747v2.763h-4.747v5.03h-2.9Z" transform="translate(-928.227 -1192.772)"/><path class="c" d="M2077.817,1140.793H2073v-2.834h4.817V1133h2.9v4.959h4.746v2.834h-4.746v4.959h-2.9Z" transform="translate(-1926.14 -1048.753)"/><path class="c" d="M2590.73,814.409a4.322,4.322,0,1,0,4.321,4.322A4.294,4.294,0,0,0,2590.73,814.409Zm0,11.052a6.73,6.73,0,1,1,6.73-6.73A6.773,6.773,0,0,1,2590.73,825.46Z" transform="translate(-2400.939 -750.493)"/><path class="c" d="M1497.73,905.409a4.322,4.322,0,1,0,4.322,4.321A4.294,4.294,0,0,0,1497.73,905.409Zm0,11.052a6.73,6.73,0,1,1,6.73-6.73A6.773,6.773,0,0,1,1497.73,916.46Z" transform="translate(-1385.372 -835.047)"/><path class="c" d="M707.73,856.409a4.321,4.321,0,1,0,4.321,4.321A4.294,4.294,0,0,0,707.73,856.409Zm0,11.052a6.73,6.73,0,1,1,6.73-6.73A6.773,6.773,0,0,1,707.73,867.46Z" transform="translate(-651.338 -789.518)"/><path class="c" d="M1013.03,4582l-4.747.567-.283-2.834,4.747-.5-.567-4.959,2.9-.283.5,4.959,4.747-.567.354,2.834-4.747.5.5,4.959-2.9.284Z" transform="translate(-936.589 -4245.979)"/><path class="c" d="M1013.03,4582l-4.747.567-.283-2.834,4.747-.5-.567-4.959,2.9-.283.5,4.959,4.747-.567.354,2.834-4.747.5.5,4.959-2.9.284Z" transform="translate(-339.612 -4235.042)"/><path class="c" d="M5.03,8,.283,8.572,0,5.738l4.747-.5L4.18.283,7.084,0l.5,4.959,4.747-.567.354,2.834-4.747.5.5,4.959-2.9.284Z" transform="matrix(0.208, 0.978, -0.978, 0.208, 629.638, 292.102)"/><path class="c" d="M631.655,5097.829a4.311,4.311,0,1,0,4.747,3.826A4.4,4.4,0,0,0,631.655,5097.829Zm1.2,10.981a6.736,6.736,0,1,1,5.951-7.438A6.751,6.751,0,0,1,632.859,5108.81Z" transform="translate(-581.072 -4730.418)"/><path class="c" d="M631.655,5097.829a4.311,4.311,0,1,0,4.747,3.826A4.4,4.4,0,0,0,631.655,5097.829Zm1.2,10.981a6.736,6.736,0,1,1,5.951-7.438A6.751,6.751,0,0,1,632.859,5108.81Z" transform="translate(15.904 -4719.481)"/><path class="c" d="M6.278,2.453A4.4,4.4,0,0,0,2.453,7.2,4.4,4.4,0,0,0,7.2,11.025a4.4,4.4,0,0,0,3.826-4.747A4.4,4.4,0,0,0,6.278,2.453Zm1.2,10.981A6.736,6.736,0,1,1,13.434,6,6.751,6.751,0,0,1,7.483,13.434Z" transform="matrix(0.208, 0.978, -0.978, 0.208, 587.872, 273.267)"/><path class="c" d="M862.655,3989.829a4.311,4.311,0,1,0,4.747,3.825A4.4,4.4,0,0,0,862.655,3989.829Zm1.2,10.981a6.736,6.736,0,1,1,5.951-7.438A6.751,6.751,0,0,1,863.859,4000.81Z" transform="translate(-795.707 -3700.913)"/><path class="c" d="M862.655,3989.829a4.311,4.311,0,1,0,4.747,3.825A4.4,4.4,0,0,0,862.655,3989.829Zm1.2,10.981a6.736,6.736,0,1,1,5.951-7.438A6.751,6.751,0,0,1,863.859,4000.81Z" transform="translate(-198.731 -3689.976)"/><path class="c" d="M8210.747,906.793H8206V904.03h4.747V899h2.9v5.03h4.817v2.763h-4.817v5.03h-2.9Z" transform="translate(-7655.642 -828.596)"/><path class="c" d="M8210.747,906.793H8206V904.03h4.747V899h2.9v5.03h4.817v2.763h-4.817v5.03h-2.9Z" transform="translate(-7541.715 -828.596)"/><path class="c" d="M9396.747,2456.793H9392v-2.834h4.747V2449h2.9v4.959h4.746v2.834h-4.746v4.959h-2.9Z" transform="translate(-8668.303 -2295.219)"/><path class="c" d="M9364.73,999.409a4.321,4.321,0,1,0,4.32,4.321A4.293,4.293,0,0,0,9364.73,999.409Zm0,11.052a6.73,6.73,0,1,1,6.729-6.73A6.773,6.773,0,0,1,9364.73,1010.46Z" transform="translate(-8780.715 -867.702)"/><path class="c" d="M7954.73,2124.409a4.322,4.322,0,1,0,4.321,4.322A4.294,4.294,0,0,0,7954.73,2124.409Zm0,11.052a6.73,6.73,0,1,1,6.73-6.73A6.774,6.774,0,0,1,7954.73,2135.46Z" transform="translate(-7338.449 -2077.058)"/><path class="c" d="M7954.73,2124.409a4.322,4.322,0,1,0,4.321,4.322A4.294,4.294,0,0,0,7954.73,2124.409Zm0,11.052a6.73,6.73,0,1,1,6.73-6.73A6.774,6.774,0,0,1,7954.73,2135.46Z" transform="translate(-7231.813 -2031.487)"/><path class="d" d="M1840.5,4404.473l-.5-4.251c4.676-.5,10.768-5.1,13.815-10.484,1.488-2.622,2.9-6.518,1.134-10.272-.921-1.984-2.054-3.117-3.33-3.33-2.479-.425-5.667,2.337-6.589,3.258l-3.117-2.9c.5-.567,5.243-5.385,10.414-4.605,2.763.425,4.959,2.409,6.518,5.738,1.913,4.18,1.488,9.21-1.346,14.169-3.684,6.518-11.052,11.973-17.074,12.61Z" transform="translate(-1709.647 -4058.102)"/><path class="d" d="M1352.043,4244.446l-30.463-.283L1314,4186h45.836Z" transform="translate(-1220.911 -3885.466)"/><path class="e" d="M1377,4186l8.005,58.163,9,.141-3.188-58.3Z" transform="translate(-1279.448 -3885.466)"/><path class="f" d="M1758.6,4186.071l10.06-.071-7.793,58.446-6.872-.071Z" transform="translate(-1629.74 -3885.466)"/><path class="g" d="M2103.451,5059.705a16.425,16.425,0,0,1-9.068-14.948h0a16.505,16.505,0,0,1,9.068-14.948V5024H2031.97a20.73,20.73,0,0,0-20.97,20.474h0a20.73,20.73,0,0,0,20.97,20.474h71.482v-5.242Z" transform="translate(-1868.533 -4664.098)"/><g transform="translate(83.454 359.902)"><path class="h" d="M1329.464,5059.705a16.425,16.425,0,0,1-9.068-14.948h0a16.506,16.506,0,0,1,9.068-14.948V5024H1194.223A16.012,16.012,0,0,0,1178,5039.869v9.21a16.057,16.057,0,0,0,16.223,15.868h135.241v-5.242Z" transform="translate(-1178 -5024)"/><path class="c" d="M2202.871,5118.242a16.426,16.426,0,0,1-9.068-14.948h0a16.5,16.5,0,0,1,9.068-14.948V5087h-68.152A16.527,16.527,0,0,0,2118,5103.294h0a16.482,16.482,0,0,0,16.719,16.294h68.152Z" transform="translate(-2051.407 -5082.537)"/><path class="i" d="M1258.123,5057.779s-5.738,3.4-6.659,7.651-.283,6.163-.283,6.163l49.874.213s.354-10.131,8.785-14.806Z" transform="translate(-1245.797 -5054.662)"/><path class="j" d="M2348,5177.283l62.7-.283-.992,1.771Z" transform="translate(-2265.113 -5166.161)"/><path class="j" d="M2172,5308.992l72.261-.992v1.133Z" transform="translate(-2101.581 -5287.88)"/><path class="j" d="M2374,5455.212l61.209-.212.85,1.134Z" transform="translate(-2289.271 -5424.466)"/></g><g transform="translate(641.41 444.597) rotate(-180)"><path class="h" d="M151.464,35.705A16.426,16.426,0,0,1,142.4,20.757h0a16.505,16.505,0,0,1,9.068-14.948V0H16.223A16.012,16.012,0,0,0,0,15.869v9.21A16.057,16.057,0,0,0,16.223,40.947H151.464V35.705Z" transform="translate(0 0)"/><path class="c" d="M84.871,31.242A16.426,16.426,0,0,1,75.8,16.294h0A16.5,16.5,0,0,1,84.871,1.346V0H16.719A16.527,16.527,0,0,0,0,16.294H0A16.482,16.482,0,0,0,16.719,32.588H84.871Z" transform="translate(66.593 4.463)"/><path class="i" d="M7.158,14.027S1.419,10.626.5,6.376.215.212.215.212L50.089,0s.354,10.13,8.785,14.806Z" transform="translate(7.535 22.612)"/><path class="j" d="M0,.283,62.7,0l-.992,1.771Z" transform="translate(82.887 10.839)"/><path class="j" d="M0,.992,72.261,0V1.133Z" transform="translate(70.419 20.12)"/><path class="j" d="M0,.212,61.209,0l.85,1.133Z" transform="translate(84.73 30.534)"/></g><g transform="translate(652.347 361.658) rotate(-180)"><path class="h" d="M151.464,35.705A16.426,16.426,0,0,1,142.4,20.757h0a16.505,16.505,0,0,1,9.068-14.948V0H16.223A16.012,16.012,0,0,0,0,15.869v9.21A16.057,16.057,0,0,0,16.223,40.947H151.464V35.705Z" transform="translate(0 0)"/><path class="c" d="M84.871,31.242A16.426,16.426,0,0,1,75.8,16.294h0A16.5,16.5,0,0,1,84.871,1.346V0H16.719A16.527,16.527,0,0,0,0,16.294H0A16.482,16.482,0,0,0,16.719,32.588H84.871Z" transform="translate(66.593 4.463)"/><path class="i" d="M7.158,14.027S1.419,10.626.5,6.376.215.212.215.212L50.089,0s.354,10.13,8.785,14.806Z" transform="translate(7.535 22.612)"/><path class="j" d="M0,.283,62.7,0l-.992,1.771Z" transform="translate(82.887 10.839)"/><path class="j" d="M0,.992,72.261,0V1.133Z" transform="translate(70.419 20.12)"/><path class="j" d="M0,.212,61.209,0l.85,1.133Z" transform="translate(84.73 30.534)"/></g><g transform="translate(68.223 402.054)"><path class="k" d="M963,5654.706a16.347,16.347,0,0,0,9.068-14.948h0A16.505,16.505,0,0,0,963,5624.809V5619h135.241a16.012,16.012,0,0,1,16.223,15.87v9.209a16.057,16.057,0,0,1-16.223,15.87H963v-5.243Z" transform="translate(-963 -5619)"/><path class="l" d="M963,5654.706a16.347,16.347,0,0,0,9.068-14.948h0A16.505,16.505,0,0,0,963,5624.809V5619h71.482a20.73,20.73,0,0,1,20.97,20.474h0a20.73,20.73,0,0,1-20.97,20.474H963v-5.243Z" transform="translate(-963 -5619)"/><path class="c" d="M963,5713.242a16.348,16.348,0,0,0,9.068-14.948h0A16.5,16.5,0,0,0,963,5683.346V5682h68.152a16.527,16.527,0,0,1,16.719,16.294h0a16.482,16.482,0,0,1-16.719,16.294H963Z" transform="translate(-963 -5677.536)"/><path class="l" d="M2248.716,5646.78s5.738,3.4,6.659,7.651.283,6.164.283,6.164l-49.874.212s-.354-10.131-8.785-14.806Z" transform="translate(-2109.578 -5644.087)"/><path class="j" d="M1111.768,5781.284,1049,5781l.992,1.7Z" transform="translate(-1042.907 -5769.523)"/><path class="j" d="M1162.261,5912.991,1090,5912v1.063Z" transform="translate(-1081.003 -5891.243)"/><path class="j" d="M1095.059,6058.284,1033.85,6058l-.85,1.134Z" transform="translate(-1028.041 -6026.899)"/></g><g transform="translate(619.798 401.988) rotate(180)"><path class="k" d="M0,35.706A16.347,16.347,0,0,0,9.068,20.758h0A16.505,16.505,0,0,0,0,5.809V0H135.241a16.012,16.012,0,0,1,16.223,15.87v9.209a16.057,16.057,0,0,1-16.223,15.87H0V35.706Z"/><path class="l" d="M0,35.706A16.347,16.347,0,0,0,9.068,20.758h0A16.505,16.505,0,0,0,0,5.809V0H71.482a20.73,20.73,0,0,1,20.97,20.474h0a20.73,20.73,0,0,1-20.97,20.474H0V35.706Z"/><path class="c" d="M0,31.242A16.348,16.348,0,0,0,9.068,16.294h0A16.5,16.5,0,0,0,0,1.346V0H68.152A16.527,16.527,0,0,1,84.871,16.294h0A16.482,16.482,0,0,1,68.152,32.588H0Z" transform="translate(0 4.463)"/><path class="l" d="M51.716,14.026s5.738-3.4,6.659-7.651.283-6.164.283-6.164L8.785,0S8.431,10.13,0,14.806Z" transform="translate(88.876 24.01)"/><path class="j" d="M62.768.284,0,0,.992,1.7Z" transform="translate(6.093 11.477)"/><path class="j" d="M72.261.991,0,0V1.063Z" transform="translate(8.997 20.757)"/><path class="j" d="M62.059.284.85,0,0,1.134Z" transform="translate(4.959 31.101)"/></g><path class="m" d="M1903.256,2292.82V2271L1891,2281.91Z" transform="translate(-1757.034 -2106.132)"/><path class="m" d="M826,1749.433h96.773V1698H826Z" transform="translate(-767.483 -1573.726)"/><path class="n" d="M895,1794.038h87.067V1790H895Z" transform="translate(-831.595 -1659.208)"/><path class="n" d="M895,1953.038h66.877V1949H895Z" transform="translate(-831.595 -1806.944)"/><path class="n" d="M895,2111.967h79.629V2108H895Z" transform="translate(-831.595 -1954.68)"/><path class="n" d="M895,2270.038h78.283V2266H895Z" transform="translate(-831.595 -2101.486)"/><path class="m" d="M1888.831,3517.97V3497L1877,3507.485Z" transform="translate(-1744.026 -3245.277)"/><path class="m" d="M852,2994.52h93.16V2945H852Z" transform="translate(-791.641 -2732.383)"/><path class="o" d="M1097.776,3224.888a4.888,4.888,0,1,1-4.888-4.888A4.9,4.9,0,0,1,1097.776,3224.888Z" transform="translate(-1010.922 -2987.901)"/><path class="o" d="M1448.776,3226.888a4.888,4.888,0,1,1-4.888-4.888A4.9,4.9,0,0,1,1448.776,3226.888Z" transform="translate(-1337.055 -2989.76)"/><path class="o" d="M1800.776,3227.888a4.888,4.888,0,1,1-4.888-4.888A4.9,4.9,0,0,1,1800.776,3227.888Z" transform="translate(-1664.118 -2990.688)"/><path class="m" d="M9125.83,2021.97V2001L9114,2011.485Z" transform="translate(-8440.073 -1857.994)"/><path class="m" d="M8493,1499.52h64.539V1450H8493Z" transform="translate(-7863.068 -1346.029)"/><path class="o" d="M8603.5,1743.25a4.25,4.25,0,1,1-4.25-4.25A4.263,4.263,0,0,1,8603.5,1743.25Z" transform="translate(-7957.842 -1614.555)"/><path class="o" d="M8908.5,1744.251a4.25,4.25,0,1,1-4.251-4.251A4.263,4.263,0,0,1,8908.5,1744.251Z" transform="translate(-8241.234 -1615.484)"/><path class="o" d="M9213.5,1745.251a4.25,4.25,0,1,1-4.25-4.251A4.263,4.263,0,0,1,9213.5,1745.251Z" transform="translate(-8524.627 -1616.414)"/><path class="p" d="M4542.813,4825.509,4477,4830.894V4792h77.008v27.629Z" transform="translate(-4159.831 -4448.534)"/><path class="q" d="M4372,4883.92h76.937V4857H4372Z" transform="translate(-4062.27 -4508.929)"/><path class="r" d="M4448.937,4857v15.515L4372,4857Z" transform="translate(-4062.27 -4508.929)"/><path class="q" d="M3934.306,5273.272H3781l.071-8.218L3822.585,5237h70.136l41.656,27.983Z" transform="translate(-3513.139 -4862.008)"/><path class="p" d="M4367.313,5237h-76.795l-6.518,4.038,83.6.992Z" transform="translate(-3980.504 -4862.008)"/><path class="s" d="M5458.354,5190.926l-.354-5.03,7.51-3.9,33.792,23.52-6.73,8.36Z" transform="translate(-5071.333 -4810.905)"/><path class="p" d="M5951.8,5514l-.213,8.643-6.588,8.005.07-8.289Z" transform="translate(-5523.832 -5119.385)"/><path class="p" d="M7515,1836.385l9.139-8.855V1606l-9.139,8.855Z" transform="translate(-6982.607 -1488.243)"/><path class="t" d="M2316,1614.856l9.139-8.855h368.318l-9.139,8.855Z" transform="translate(-2151.925 -1488.243)"/><path class="q" d="M2316,1952.529h368.318V1731H2316Z" transform="translate(-2151.925 -1604.388)"/><path class="n" d="M2519,2092.552h339.2V1917H2519Z" transform="translate(-2340.544 -1777.211)"/><path class="u" d="M2643.94,1786.242l-292.94.071V1781h284.368Z" transform="translate(-2184.446 -1650.846)"/><path class="u" d="M2737.9,4536.594l-358.9.921v-14.948l358.9-.566Z" transform="translate(-2210.462 -4197.662)"/><path class="g" d="M4822.444,4524.722a7.722,7.722,0,1,1-7.722-7.722A7.74,7.74,0,0,1,4822.444,4524.722Z" transform="translate(-4466.453 -4193.017)"/><path class="v" d="M6984.095,1334.465l-3.755,10.981a6.163,6.163,0,0,0,1.771,6.73l20.828,17.853a5.088,5.088,0,0,0,3.542,1.275l28.55-.425a5.626,5.626,0,0,0,5.243-4.251l2.55-9a6.176,6.176,0,0,0-3.33-7.368l-48.1-19.482a5.5,5.5,0,0,0-7.227,3.542Z" transform="translate(-6485.494 -1232.153)"/><path class="t" d="M6655.294,996.143l50.512,44.136a2.036,2.036,0,0,0,1.275.5l59.084-1.134a1.913,1.913,0,0,0,1.771-1.346c.284-.779,1.984-4.747,1.2-5.384l-42.577-32.376a1.4,1.4,0,0,0-.992-.425l-68.79-11.123c-.851-.071-1.488,3.826-1.842,4.463a2.192,2.192,0,0,0,.425,2.763Z" transform="translate(-6183.189 -914.941)"/><path class="v" d="M6673.5,985.524l50.512,44.136a2.037,2.037,0,0,0,1.275.5l59.083-1.133c1.842,0,2.621-2.48,1.205-3.755l-40.806-35.422a1.4,1.4,0,0,0-.993-.425l-68.79-7.58c-1.913-.213-2.9,2.409-1.416,3.684Z" transform="translate(-6200.12 -908.29)"/><path class="w" d="M6719,1002l58.021,23.662,10.414-16.011Z" transform="translate(-6242.999 -927.033)"/><path class="g" d="M7538,1336l17.569,22.387-.85,30.038-6.234,3.9.78-33.226Z" transform="translate(-7003.978 -1237.371)"/><path class="x" d="M4700,2059.122h31.384V2022H4700Z" transform="translate(-4367.033 -1874.772)"/><path class="t" d="M4699.071,2056.071l-.071,14.948s16.577,0,31.455-13.956L4699.071,2056Z" transform="translate(-4366.104 -1906.364)"/><path class="y" d="M4408.572,854.013c-1.417-15.444-11.76-5.809-11.76-5.809s9.493-42.152-22.6-51.22a26.75,26.75,0,0,0-17.995,0c-32.092,9.068-22.6,51.22-22.6,51.22s-10.414-9.635-11.76,5.809c-1.417,15.444,14.948,16.932,14.948,16.932,5.385,11.122,16.437,18.632,27.629,18.845,11.689.283,23.521-7.226,29.117-18.845,0,0,16.365-1.488,14.948-16.932Z" transform="translate(-4015.601 -735.052)"/><path class="t" d="M5384.071,1595.925s1.629-7.51,4.392-4.463c2.763,2.975-.5,11.123-2.975,10.768s-.426-1.771-.143-4.18S5384,1596,5384,1596Z" transform="translate(-5002.576 -1474.06)"/><path class="t" d="M4400.557,1576.925s-1.629-7.509-4.392-4.463c-2.763,2.975.5,11.123,2.976,10.768s.424-1.771.142-4.18,1.346-2.055,1.346-2.055Z" transform="translate(-4083.743 -1456.406)"/><path class="t" d="M4851.167,1895a.738.738,0,0,0-.709.5c-.07.071-1.275,2.692-5.242,2.763a8.031,8.031,0,0,1-6.305-2.9.718.718,0,0,0-1.063-.142.8.8,0,0,0-.142,1.134,9.355,9.355,0,0,0,7.51,3.542c4.958-.142,6.517-3.542,6.588-3.684a.8.8,0,0,0-.354-1.063.531.531,0,0,0-.354-.071Z" transform="translate(-4494.821 -1756.769)"/><path class="t" d="M4711.25,1564.826c0,2.125-.92,3.826-2.125,3.826-1.134,0-2.125-1.7-2.125-3.826s.92-3.826,2.125-3.826C4710.259,1561,4711.25,1562.7,4711.25,1564.826Z" transform="translate(-4373.538 -1446.431)"/><path class="t" d="M4645.19,1451.279a1.757,1.757,0,0,1,.779-1.913c1.488-.921,4.888-2.763,7.438-1.559,3.33,1.559,2.2,2.975,1.346,3.471-.779.5-2.833-1.063-5.738.354-2.125,1.063-3.472.709-3.826-.425Z" transform="translate(-4316.048 -1340.89)"/><path class="t" d="M5136.25,1547.825c0,2.125-.921,3.826-2.125,3.826-1.134,0-2.125-1.7-2.125-3.826s.921-3.826,2.125-3.826C5135.258,1544,5136.25,1545.7,5136.25,1547.825Z" transform="translate(-4768.428 -1430.635)"/><path class="t" d="M5097.711,1443.24a1.763,1.763,0,0,0-.85-1.842c-1.559-.85-5.03-2.479-7.51-1.133-3.259,1.771-1.983,3.117-1.133,3.613.85.425,2.834-1.275,5.738,0C5096.152,1444.87,5097.428,1444.374,5097.711,1443.24Z" transform="translate(-4726.842 -1333.772)"/><path class="t" d="M4890.634,1620.429Zm0,0Zm.071,1.275c-.638,0-1.2-.071-1.417-.638a.878.878,0,0,1,.354-1.063.652.652,0,0,1,.708.071,5.733,5.733,0,0,0,3.188-.638,72.672,72.672,0,0,0-.637-9.706.747.747,0,0,1,.708-.85.785.785,0,0,1,.851.708c.284,2.834.921,9.422.5,10.556-.638,1.488-3.755,1.559-4.109,1.559Z" transform="translate(-4542.86 -1490.912)"/><path class="t" d="M4444.545,695.084s3.259-6.093,1.346-9.351c-1.842-3.259-6.659-3.046-6.659-3.046s2.2-3.9-3.9-5.1-5.951,2.2-8.359,3.046-23.8-9.493-38.4-7.155c-5.951.992-8.005,5.03-8.005,10.343a7.956,7.956,0,0,0-2.692.425c-11.9,4.251-13.035,16.223-13.672,21.041a96.391,96.391,0,0,0-.284,10.343c0,7.3.921,10.131,1.629,16.082a6.753,6.753,0,0,1,4.038.708c5.03,2.621,5.313,16.223,8.289,11.335,1.771-2.9-2.337-14.1-.921-22.458.921-5.668,12.54-4.109,13.248-9.635,3.046,1.771,9.21,3.826,21.4,4.817a68.94,68.94,0,0,0,18.915-.921c5.951,6.518-1.559,21.891.85,25.787,2.621,4.251,2.338-3.684,5.526-7.58a9.684,9.684,0,0,1,5.03-2.2c.708-7.368,1.346-16.365,1.063-20.757,3.754-2.479,5.738-5.384,5.88-8.147.354-7.155-4.25-7.651-4.25-7.651Z" transform="translate(-4054.761 -621.463)"/><path class="c" d="M4887.133,1581.926l-1.133-2.2c.212-.071,4.392-2.267,8.146-.213l-1.2,2.2C4890.392,1580.3,4887.2,1581.926,4887.133,1581.926Z" transform="translate(-4539.856 -1462.823)"/><path class="c" d="M5278.7,1549.793l-1.7-1.842,7.651-5.951-1.771,4.18Z" transform="translate(-4903.156 -1428.777)"/><path class="c" d="M4487.722,1555.526l-6.164-2.267L4480,1550l8.572,3.188Z" transform="translate(-4162.619 -1436.211)"/><path class="c" d="M4580.054,1508.744h19.128v-11.76h-19.128Zm21.183,2.054H4578V1495h23.237Z" transform="translate(-4253.676 -1385.107)"/><path class="c" d="M4980.055,1511.744h19.128v-11.76h-19.128Zm21.183,2.054H4978V1498h23.237Z" transform="translate(-4625.338 -1387.894)"/><path class="y" d="M2914.848,768.316s-6.518-16.294-7.793-18.845.85-5.951,4.818-2.834c4.038,3.117,11.76,23.379,12.752,28.479s.779,10.343,3.4,9.989c2.621-.283,4.321-5.738,7.226-6.943s10.131-1.559,12.115-.213c1.913,1.275-2.551,3.33-6.022,6.234s-7.014,8.36-7.793,11.76-7.58,13.673-12.044,13.885c-4.392.213-17.144-4.463-19.482-9.776s-9.918-17.569-8.714-20.12c1.134-2.621,2.338-7.155,3.9-7.935s17.64-3.613,17.64-3.613Z" transform="translate(-2688.218 -688.603)"/><path class="t" d="M3136.534,1365.017s-4.038-4.038-4.534-5.1c-.567-1.063,2.125,1.2,4.817.992,2.692-.283,4.747-3.117,7.722-2.975,0,0-4.321,2.763-4.959,4.6s-.708,4.463-3.117,2.551Z" transform="translate(-2910.046 -1257.745)"/><path class="t" d="M2969.135,1055.79c-.283-1.488,2.125-5.88,1.913-7.084-.283-1.275-4.392-7.651-5.384-8.43A9.67,9.67,0,0,0,2962.9,1039v4.6c-1.984-1.488-3.9-2.9-4.251-3.117a4.4,4.4,0,0,1-2.054.425c-.921-.213-4.322,2.975-4.322,2.975l.354,1.559-5.03-.708s-.921,1.488.708,3.4a4.123,4.123,0,0,1,.779,1.275c-.425.283-.425,1.417-.5,2.338-.283,2.267,2.338,2.834,2.338,2.834h0c1.346,1.063,4.322,2.055,5.03,1.417.5,0,1.133.567,2.338,1.275,2.338,1.417,3.967-.213,4.747-.425,1.346-.283,1.984.567,2.763.921a8.087,8.087,0,0,0,1.488.213c1.417.071,1.983-1.7,1.913-2.2Z" transform="translate(-2738.538 -961.412)"/><path class="y" d="M3105.783,1035.775c1.133-3.259,3.825-2.055,5.526-1.275s6.164,8.289,6.092,9.139c-.071.779-1.559,5.738-1.275,7.3s-3.188,3.33-5.243.071c-1.2-1.913.212-5.667.142-6.518-.142-1.346-5.6-7.722-5.242-8.643Z" transform="translate(-2885.741 -956.416)"/><path class="y" d="M3017.729,1066.015s3.9,4.6,3.825,5.384-1.346,5.1,1.063,6.659a4.552,4.552,0,0,0,4.747.567c.142-.213.142-5.1.921-6.376.708-1.275-3.542-7.58-5.313-9.139s-6.8-1.417-5.172,2.9Z" transform="translate(-2803.709 -982.971)"/><path class="y" d="M2952.718,1107.688c-1.134,0-4.393-2.054-4.25-3.542s0-2.975-.5-3.542-2.338-1.771-2.763-2.763c-.354-.992.921-2.975,1.984-3.188a5.726,5.726,0,0,1,3.188,1.063c.071.142,3.259,4.959,3.259,5.313,0,1.629.992,6.588-.921,6.588Z" transform="translate(-2736.502 -1013.098)"/><path class="y" d="M3058.154,1529.732s-1.913,3.9-.992,7.155-16.011,2.9-16.011,2.9l-6.093-3.33a42.5,42.5,0,0,0-3.117-8.572C3030.171,1524.844,3058.154,1529.732,3058.154,1529.732Z" transform="translate(-2817.072 -1414.738)"/><path class="h" d="M3045.325,1590.321s15.161,1.417,25.008-4.321a17.607,17.607,0,0,1,2.055,6.234c.567,6.589,9.422,26.283,12.043,40.452s11.335,39.6,5.243,51.149-15.3,15.515-24.512,9.493-15.373-22.032-16.79-38.681c-.85-9.776-4.321-38.539-3.613-55.967.212-4.463.5-8.36.5-8.36Z" transform="translate(-2828.967 -1469.66)"/><path class="h" d="M5085.885,2236s21.891,4.038,35.21,11.123c13.248,7.084,16.648,12.256,28.55,33.013,7.509,13.177,23.875,30.534,29.188,39.46,4.676,7.935,6.305,9,5.88,17.286-.354,7.51-8.714,12.4-17.5,14.31-8.856,1.913-29.187-22.1-39.318-35.138-10.981-14.169-11.831-11.052-23.1-23.449-5.242-5.809-39.956-43.5-18.773-56.6Z" transform="translate(-4719.409 -2073.612)"/><path class="h" d="M3361.84,2211s-20.757,3.613-39.035,10.7c-19.482,7.58-36.768,18.632-42.01,20.4a30.243,30.243,0,0,0-15.09,11.477s-16.577,17.853,10.768,24.087c17,3.9,46.332,8.36,60.784.708C3351.71,2270.65,3374.8,2223.043,3361.84,2211Z" transform="translate(-3029.724 -2050.383)"/><path class="h" d="M4109.214,2322.3c.5,9.918,1.983,22.741,1.559,33.155l99.748.142c5.88-33.438,12.327-81.471,12.327-81.471,2.338-41.656-41.727-60.43-41.727-60.43s-3.046,7.226-18.986,6.447c-15.94-.708-15.231-8.147-15.231-8.147s-39.248,26.992-40.877,40.31c-1.629,13.248,2.479,57.667,3.117,69.994Z" transform="translate(-3814.786 -2051.312)"/><path class="c" d="M4688,2211s.5,15.586,16.86,62.484a447.719,447.719,0,0,0,17.357-60.713,95.863,95.863,0,0,1-17.357,5.384C4696.43,2219.714,4688,2211,4688,2211Z" transform="translate(-4355.884 -2050.383)"/><path class="z" d="M4474.294,2211,4458,2236.22l21.961,21.678-12.539,4.322,27.842,47.182-4.108-35.918Z" transform="translate(-4142.177 -2050.383)"/><path class="z" d="M4943.357,2234l15.443,15.3-19.34,28.55,9.847-1.063-19.2,53.983L4926,2294.855Z" transform="translate(-4577.022 -2071.753)"/><path class="m" d="M5815.49,1201.94l6.73-41.94-40.381,10.91L5771,1249.618l39.46-6.305Z" transform="translate(-5362.159 -1073.84)"/><path class="aa" d="M5862,1124.627l4.392,3.542,40.381-10.91-4.038-3.259Z" transform="translate(-5446.712 -1031.099)"/><path class="ab" d="M5721,1343.133l3.542,3.117,10.839-78.708-4.393-3.542Z" transform="translate(-5315.701 -1170.472)"/><path class="x" d="M5967.1,1793.436s12.752,1.629,13.673-.283,8.359-27.771,9.067-30.888c.708-3.046-1.984-10.343-2.2-19.624-.213-8.785-.708-8.643-1.7-8.785s-1.913,1.134-1.913,1.134a5.873,5.873,0,0,0-2.976-.638,5.456,5.456,0,0,0-3.117,1.063c-.213.213-1.559,5.88-1.559,5.88s-1.842-1.346-3.188-.779c-1.346.638-2.833,1.7-3.117,6.376a53.486,53.486,0,0,0,0,8.643c.213,1.2.637,7.934.637,7.934s-3.046,14.736-3.967,16.861-2.267,12.964.424,13.248Z" transform="translate(-5542.954 -1607.031)"/><path class="t" d="M6021.277,1854.487s-5.667-12.256-5.525-16.506c.142-4.322.992-8.643,1.913-9.777l.991-1.2a4.48,4.48,0,0,0-2.763,2.125c-1.133,1.842-1.7,10.485-.991,12.114.708,1.559,1.7,8.714,1.7,8.714l4.888,5.313Z" transform="translate(-5588.492 -1693.587)"/><path class="t" d="M6116.646,1740.448s-3.542-.354-4.108.992c-.638,1.346-1.771,10.343-1.417,14.1s4.817,13.673,4.817,13.673-3.471-9.847-3.542-14.948S6111.475,1739.81,6116.646,1740.448Z" transform="translate(-5678.122 -1613.127)"/><path class="t" d="M6217.136,1749a60.183,60.183,0,0,0-.283,14.381c.85,7.155,2.338,10.272,2.338,10.272S6215.648,1755.234,6217.136,1749Z" transform="translate(-5776.132 -1621.113)"/><path class="x" d="M5932.915,1983.521s-2.337-11.9,1.984-21.82c2.338-5.455-3.755-11.619-3.967-16.79-.142-5.172,2.621-6.447,3.967-5.526s-.071,4.251,2.692,8.855,6.093,9.776,6.164,11.193a52.873,52.873,0,0,1-1.134,11.264c-.992,4.18-.637,16.578-9.706,12.894Z" transform="translate(-5510.755 -1797.754)"/><path class="ac" d="M5957.515,2566.119c5.1-1.63,11.264-8.147,12.043-15.161,1.2-11.052-3.259-30.534-9.209-45.624-9.068-22.883-10.2-25.15-15.869-37.335,0,0-11.618,8.5-21.253,4.251,0,0-.638,10.131-.85,13.814-.851,13.956,1.133,27.559,3.613,45.907,2.267,16.365,13.248,40.168,31.525,34.218Z" transform="translate(-5502.626 -2289.176)"/><path class="ab" d="M3055,3938.951h263.54V3933H3055Z" transform="translate(-2838.572 -3650.389)"/><path class="ad" d="M3055,3938.951h93.939V3933H3055Z" transform="translate(-2838.572 -3650.389)"/><path class="q" d="M3055,4036.978h263.54V4017H3055Z" transform="translate(-2838.572 -3728.438)"/><path class="n" d="M3122,4066.594V4052l12.043,7.3Z" transform="translate(-2900.825 -3760.959)"/><path class="n" d="M6493.409,4063.092v-3.613h3.613V4057H6491v6.092Z" transform="translate(-6031.151 -3765.604)"/><path class="n" d="M6611,4059.479h3.612v3.542h2.409V4057H6611Z" transform="translate(-6142.651 -3765.604)"/><path class="n" d="M6497.021,4180.613h-3.613V4177H6491v6.021h6.022Z" transform="translate(-6031.151 -3877.103)"/><path class="n" d="M6614.613,4176v3.684H6611v2.408h6.021V4176Z" transform="translate(-6142.651 -3876.174)"/><path class="ae" d="M8373,3603Z" transform="translate(-7779.823 -3343.768)"/><path class="af" d="M5323,4799.376l5.951-6.376H5473.9l-5.879,6.376Z" transform="translate(-4945.897 -4449.463)"/><path class="m" d="M530,6258.91h662.887V6248H530Z" transform="translate(-492.453 -5801.385)"/></g></svg>